  0
SECTION
  2
HEADER
  9
$ACADVER
  1
AC1009
  0
ENDSEC
  0
SECTION
  2
TABLES
  0
TABLE
  2
LAYER
  70
1
  0
LAYER
  2
Layer_0
  70
0
  62
7
  6
CONTINUOUS
  0
ENDTAB
  0
ENDSEC
  0
SECTION
  2
ENTITIES
  0
POLYLINE
  5
90
  8
Layer_0
  62
7
  70
1
  66
1
  10
0
  20
0
  30
0
  0
VERTEX
  5
90
  8
Layer_0
  10
615.20898
  20
2083.0715
  42
0.012989756
  0
VERTEX
  5
91
  8
Layer_0
  10
611.22937
  20
2082.6223
  42
0.0063616396
  0
VERTEX
  5
92
  8
Layer_0
  10
606.18469
  20
2081.8542
  42
0.0063619897
  0
VERTEX
  5
93
  8
Layer_0
  10
601.14227
  20
2080.9546
  42
0.012504558
  0
VERTEX
  5
94
  8
Layer_0
  10
597.16156
  20
2080.0881
  42
0.037749563
  0
VERTEX
  5
95
  8
Layer_0
  10
582.55273
  20
2075.3289
  42
0.060211056
  0
VERTEX
  5
96
  8
Layer_0
  10
571.08826
  20
2068.8999
  42
0.073959197
  0
VERTEX
  5
97
  8
Layer_0
  10
563.34595
  20
2061.2493
  42
0.12415713
  0
VERTEX
  5
98
  8
Layer_0
  10
559.82465
  20
2052.8186
  0
VERTEX
  5
99
  8
Layer_0
  10
559.49994
  20
2050.6787
  0
VERTEX
  5
9a
  8
Layer_0
  10
570.87115
  20
2050.6787
  0
VERTEX
  5
9b
  8
Layer_0
  10
582.24237
  20
2050.6787
  0
VERTEX
  5
9c
  8
Layer_0
  10
582.24237
  20
2027.7683
  42
0.0014145142
  0
VERTEX
  5
9d
  8
Layer_0
  10
582.27075
  20
2017.7988
  42
0.0038294625
  0
VERTEX
  5
9e
  8
Layer_0
  10
582.3653
  20
2010.7114
  42
0.00087809511
  0
VERTEX
  5
9f
  8
Layer_0
  10
582.4928
  20
2005.0934
  42
0.40707259
  0
VERTEX
  5
a0
  8
Layer_0
  10
582.72363
  20
2004.8579
  42
-0.36475386
  0
VERTEX
  5
a1
  8
Layer_0
  10
582.92456
  20
2004.6825
  42
-0.015033669
  0
VERTEX
  5
a2
  8
Layer_0
  10
583.07043
  20
2003.6621
  42
-0.018604646
  0
VERTEX
  5
a3
  8
Layer_0
  10
583.17249
  20
2002.2994
  42
-0.0094008634
  0
VERTEX
  5
a4
  8
Layer_0
  10
583.2049
  20
2000.578
  42
-0.0094072573
  0
VERTEX
  5
a5
  8
Layer_0
  10
583.17249
  20
1998.8564
  42
-0.018595657
  0
VERTEX
  5
a6
  8
Layer_0
  10
583.07043
  20
1997.4939
  42
-0.015044202
  0
VERTEX
  5
a7
  8
Layer_0
  10
582.92456
  20
1996.4734
  42
-0.36467002
  0
VERTEX
  5
a8
  8
Layer_0
  10
582.72363
  20
1996.298
  42
0.39034768
  0
VERTEX
  5
a9
  8
Layer_0
  10
582.50751
  20
1996.0906
  42
0.0056530003
  0
VERTEX
  5
aa
  8
Layer_0
  10
582.37018
  20
1994.1581
  42
0.01048375
  0
VERTEX
  5
ab
  8
Layer_0
  10
582.27246
  20
1991.6331
  42
0.0044437099
  0
VERTEX
  5
ac
  8
Layer_0
  10
582.24237
  20
1988.2416
  0
VERTEX
  5
ad
  8
Layer_0
  10
582.24237
  20
1980.1852
  0
VERTEX
  5
ae
  8
Layer_0
  10
570.93262
  20
1980.1852
  0
VERTEX
  5
af
  8
Layer_0
  10
559.62292
  20
1980.1852
  0
VERTEX
  5
b0
  8
Layer_0
  10
559.62292
  20
1963.3171
  0
VERTEX
  5
b1
  8
Layer_0
  10
559.62292
  20
1946.4491
  0
VERTEX
  5
b2
  8
Layer_0
  10
570.93262
  20
1946.4491
  0
VERTEX
  5
b3
  8
Layer_0
  10
582.24237
  20
1946.4491
  0
VERTEX
  5
b4
  8
Layer_0
  10
582.24237
  20
1938.3927
  42
0.0044436797
  0
VERTEX
  5
b5
  8
Layer_0
  10
582.27246
  20
1935.0012
  42
0.010492419
  0
VERTEX
  5
b6
  8
Layer_0
  10
582.37018
  20
1932.4763
  42
0.0056458147
  0
VERTEX
  5
b7
  8
Layer_0
  10
582.50751
  20
1930.5437
  42
0.39036735
  0
VERTEX
  5
b8
  8
Layer_0
  10
582.72363
  20
1930.3363
  42
-0.36470976
  0
VERTEX
  5
b9
  8
Layer_0
  10
582.92456
  20
1930.1609
  42
-0.015032712
  0
VERTEX
  5
ba
  8
Layer_0
  10
583.07043
  20
1929.1404
  42
-0.018604804
  0
VERTEX
  5
bb
  8
Layer_0
  10
583.17249
  20
1927.7778
  42
-0.0094008634
  0
VERTEX
  5
bc
  8
Layer_0
  10
583.2049
  20
1926.0564
  42
-0.0094072573
  0
VERTEX
  5
bd
  8
Layer_0
  10
583.17249
  20
1924.3348
  42
-0.01859675
  0
VERTEX
  5
be
  8
Layer_0
  10
583.07043
  20
1922.9723
  42
-0.015044202
  0
VERTEX
  5
bf
  8
Layer_0
  10
582.92456
  20
1921.9518
  42
-0.36467001
  0
VERTEX
  5
c0
  8
Layer_0
  10
582.72363
  20
1921.7764
  42
0.40710609
  0
VERTEX
  5
c1
  8
Layer_0
  10
582.4928
  20
1921.541
  42
0.00087969866
  0
VERTEX
  5
c2
  8
Layer_0
  10
582.3653
  20
1915.9229
  42
0.0038233052
  0
VERTEX
  5
c3
  8
Layer_0
  10
582.27075
  20
1908.8354
  42
0.0014144748
  0
VERTEX
  5
c4
  8
Layer_0
  10
582.24237
  20
1898.866
  0
VERTEX
  5
c5
  8
Layer_0
  10
582.24237
  20
1875.9557
  0
VERTEX
  5
c6
  8
Layer_0
  10
570.89038
  20
1875.9557
  0
VERTEX
  5
c7
  8
Layer_0
  10
559.53833
  20
1875.9557
  0
VERTEX
  5
c8
  8
Layer_0
  10
559.85242
  20
1873.8157
  42
0.13362868
  0
VERTEX
  5
c9
  8
Layer_0
  10
563.68488
  20
1864.9757
  42
0.073149321
  0
VERTEX
  5
ca
  8
Layer_0
  10
572.35413
  20
1856.922
  42
0.060068462
  0
VERTEX
  5
cb
  8
Layer_0
  10
585.0202
  20
1850.2935
  42
0.039876685
  0
VERTEX
  5
cc
  8
Layer_0
  10
600.76056
  20
1845.7321
  42
0.013690183
  0
VERTEX
  5
cd
  8
Layer_0
  10
607.99792
  20
1844.4536
  42
0.017095382
  0
VERTEX
  5
ce
  8
Layer_0
  10
614.77533
  20
1843.6826
  42
0.016028229
  0
VERTEX
  5
cf
  8
Layer_0
  10
621.93652
  20
1843.3456
  42
0.0098908499
  0
VERTEX
  5
d0
  8
Layer_0
  10
630.36877
  20
1843.386
  42
0.0089566001
  0
VERTEX
  5
d1
  8
Layer_0
  10
638.43976
  20
1843.7291
  42
0.015420845
  0
VERTEX
  5
d2
  8
Layer_0
  10
645.13782
  20
1844.3419
  42
0.016932262
  0
VERTEX
  5
d3
  8
Layer_0
  10
651.32507
  20
1845.3148
  42
0.014268221
  0
VERTEX
  5
d4
  8
Layer_0
  10
657.80078
  20
1846.7517
  42
0.038546638
  0
VERTEX
  5
d5
  8
Layer_0
  10
671.94934
  20
1851.5045
  42
0.059744139
  0
VERTEX
  5
d6
  8
Layer_0
  10
683.13501
  20
1857.922
  42
0.072662543
  0
VERTEX
  5
d7
  8
Layer_0
  10
690.7276
  20
1865.519
  42
0.12321423
  0
VERTEX
  5
d8
  8
Layer_0
  10
694.17517
  20
1873.8157
  0
VERTEX
  5
d9
  8
Layer_0
  10
694.49988
  20
1875.9557
  0
VERTEX
  5
da
  8
Layer_0
  10
683.12866
  20
1875.9557
  0
VERTEX
  5
db
  8
Layer_0
  10
671.75745
  20
1875.9557
  0
VERTEX
  5
dc
  8
Layer_0
  10
671.75745
  20
1898.866
  42
0.0014154659
  0
VERTEX
  5
dd
  8
Layer_0
  10
671.72913
  20
1908.8354
  42
0.0038248227
  0
VERTEX
  5
de
  8
Layer_0
  10
671.63452
  20
1915.9229
  42
0.00087990037
  0
VERTEX
  5
df
  8
Layer_0
  10
671.50708
  20
1921.541
  42
0.40707343
  0
VERTEX
  5
e0
  8
Layer_0
  10
671.27625
  20
1921.7764
  42
-0.38218942
  0
VERTEX
  5
e1
  8
Layer_0
  10
671.06543
  20
1921.9729
  42
-0.0084635789
  0
VERTEX
  5
e2
  8
Layer_0
  10
670.92493
  20
1923.4758
  42
-0.013190455
  0
VERTEX
  5
e3
  8
Layer_0
  10
670.82581
  20
1925.4587
  42
-0.005912085
  0
VERTEX
  5
e4
  8
Layer_0
  10
670.79492
  20
1928.0704
  42
-0.0059034437
  0
VERTEX
  5
e5
  8
Layer_0
  10
670.82581
  20
1930.6821
  42
-0.013201963
  0
VERTEX
  5
e6
  8
Layer_0
  10
670.92493
  20
1932.665
  42
-0.0084346532
  0
VERTEX
  5
e7
  8
Layer_0
  10
671.06543
  20
1934.168
  42
-0.38228623
  0
VERTEX
  5
e8
  8
Layer_0
  10
671.27625
  20
1934.3645
  42
0.38073728
  0
VERTEX
  5
e9
  8
Layer_0
  10
671.48608
  20
1934.559
  42
0.0090207834
  0
VERTEX
  5
ea
  8
Layer_0
  10
671.62714
  20
1936.001
  42
0.013669138
  0
VERTEX
  5
eb
  8
Layer_0
  10
671.72656
  20
1937.9064
  42
0.0061930014
  0
VERTEX
  5
ec
  8
Layer_0
  10
671.75745
  20
1940.4067
  0
VERTEX
  5
ed
  8
Layer_0
  10
671.75745
  20
1946.4491
  0
VERTEX
  5
ee
  8
Layer_0
  10
683.06714
  20
1946.4491
  0
VERTEX
  5
ef
  8
Layer_0
  10
694.37689
  20
1946.4491
  0
VERTEX
  5
f0
  8
Layer_0
  10
694.37689
  20
1963.3171
  0
VERTEX
  5
f1
  8
Layer_0
  10
694.37689
  20
1980.1852
  0
VERTEX
  5
f2
  8
Layer_0
  10
683.06714
  20
1980.1852
  0
VERTEX
  5
f3
  8
Layer_0
  10
671.75745
  20
1980.1852
  0
VERTEX
  5
f4
  8
Layer_0
  10
671.75745
  20
1988.2416
  42
0.0044437697
  0
VERTEX
  5
f5
  8
Layer_0
  10
671.72742
  20
1991.6331
  42
0.010487836
  0
VERTEX
  5
f6
  8
Layer_0
  10
671.62964
  20
1994.1581
  42
0.0056124484
  0
VERTEX
  5
f7
  8
Layer_0
  10
671.49231
  20
1996.0906
  42
0.39023364
  0
VERTEX
  5
f8
  8
Layer_0
  10
671.27625
  20
1996.298
  42
-0.38073728
  0
VERTEX
  5
f9
  8
Layer_0
  10
671.06641
  20
1996.4926
  42
-0.0090210991
  0
VERTEX
  5
fa
  8
Layer_0
  10
670.92529
  20
1997.9344
  42
-0.013681158
  0
VERTEX
  5
fb
  8
Layer_0
  10
670.82593
  20
1999.84
  42
-0.0061843094
  0
VERTEX
  5
fc
  8
Layer_0
  10
670.79492
  20
2002.3403
  42
-0.0061841954
  0
VERTEX
  5
fd
  8
Layer_0
  10
670.82593
  20
2004.8407
  42
-0.013680828
  0
VERTEX
  5
fe
  8
Layer_0
  10
670.92529
  20
2006.7461
  42
-0.0090362035
  0
VERTEX
  5
ff
  8
Layer_0
  10
671.06641
  20
2008.1881
  42
-0.38073728
  0
VERTEX
  5
100
  8
Layer_0
  10
671.27625
  20
2008.3826
  42
0.40644668
  0
VERTEX
  5
101
  8
Layer_0
  10
671.50623
  20
2008.6167
  42
0.0010390215
  0
VERTEX
  5
102
  8
Layer_0
  10
671.63428
  20
2013.7955
  42
0.0041373319
  0
VERTEX
  5
103
  8
Layer_0
  10
671.729
  20
2020.3418
  42
0.0015335794
  0
VERTEX
  5
104
  8
Layer_0
  10
671.75745
  20
2029.5306
  0
VERTEX
  5
105
  8
Layer_0
  10
671.75745
  20
2050.6787
  0
VERTEX
  5
106
  8
Layer_0
  10
683.1095
  20
2050.6787
  0
VERTEX
  5
107
  8
Layer_0
  10
694.46149
  20
2050.6787
  0
VERTEX
  5
108
  8
Layer_0
  10
694.1474
  20
2052.8186
  42
0.051901802
  0
VERTEX
  5
109
  8
Layer_0
  10
693.43384
  20
2055.6223
  42
0.032841227
  0
VERTEX
  5
10a
  8
Layer_0
  10
692.06287
  20
2058.7034
  42
0.032062587
  0
VERTEX
  5
10b
  8
Layer_0
  10
690.22943
  20
2061.7048
  42
0.037550825
  0
VERTEX
  5
10c
  8
Layer_0
  10
688.11694
  20
2064.2776
  42
0.078977434
  0
VERTEX
  5
10d
  8
Layer_0
  10
677.51978
  20
2072.3574
  42
0.048254097
  0
VERTEX
  5
10e
  8
Layer_0
  10
663.02606
  20
2078.4272
  42
0.043203134
  0
VERTEX
  5
10f
  8
Layer_0
  10
645.68982
  20
2082.189
  42
0.03406086
  0
VERTEX
  5
110
  8
Layer_0
  10
626.52161
  20
2083.3232
  42
0.0014717339
  0
VERTEX
  5
111
  8
Layer_0
  10
622.78595
  20
2083.2786
  42
0.001846598
  0
VERTEX
  5
112
  8
Layer_0
  10
619.32617
  20
2083.2144
  42
0.0014267312
  0
VERTEX
  5
113
  8
Layer_0
  10
616.42389
  20
2083.1414
  42
0.014584005
  0
SEQEND
  0
POLYLINE
  5
115
  8
Layer_0
  62
7
  70
1
  66
1
  10
0
  20
0
  30
0
  0
VERTEX
  5
115
  8
Layer_0
  10
631.72315
  20
2076.2351
  0
VERTEX
  5
116
  8
Layer_0
  10
632.19026
  20
2075.9035
  0
VERTEX
  5
117
  8
Layer_0
  10
632.63607
  20
2075.5361
  0
VERTEX
  5
118
  8
Layer_0
  10
633.05928
  20
2075.1344
  0
VERTEX
  5
119
  8
Layer_0
  10
633.45855
  20
2074.7001
  0
VERTEX
  5
11a
  8
Layer_0
  10
633.83257
  20
2074.2346
  0
VERTEX
  5
11b
  8
Layer_0
  10
634.18
  20
2073.7394
  0
VERTEX
  5
11c
  8
Layer_0
  10
634.49954
  20
2073.2162
  0
VERTEX
  5
11d
  8
Layer_0
  10
634.78984
  20
2072.6665
  42
-0.098432932
  0
VERTEX
  5
11e
  8
Layer_0
  10
636.14313
  20
2067.4736
  42
-0.096621664
  0
VERTEX
  5
11f
  8
Layer_0
  10
635.45197
  20
2062.103
  0
VERTEX
  5
120
  8
Layer_0
  10
635.23357
  20
2061.5092
  0
VERTEX
  5
121
  8
Layer_0
  10
634.98289
  20
2060.9364
  0
VERTEX
  5
122
  8
Layer_0
  10
634.70105
  20
2060.3865
  0
VERTEX
  5
123
  8
Layer_0
  10
634.38919
  20
2059.8613
  0
VERTEX
  5
124
  8
Layer_0
  10
634.04843
  20
2059.3626
  0
VERTEX
  5
125
  8
Layer_0
  10
633.67991
  20
2058.892
  0
VERTEX
  5
126
  8
Layer_0
  10
633.28475
  20
2058.4514
  0
VERTEX
  5
127
  8
Layer_0
  10
632.86407
  20
2058.0426
  0
VERTEX
  5
128
  8
Layer_0
  10
632.3197
  20
2057.5826
  0
VERTEX
  5
129
  8
Layer_0
  10
631.75291
  20
2057.1684
  0
VERTEX
  5
12a
  8
Layer_0
  10
631.16574
  20
2056.8009
  0
VERTEX
  5
12b
  8
Layer_0
  10
630.56022
  20
2056.481
  0
VERTEX
  5
12c
  8
Layer_0
  10
629.93838
  20
2056.2098
  0
VERTEX
  5
12d
  8
Layer_0
  10
629.30225
  20
2055.9882
  0
VERTEX
  5
12e
  8
Layer_0
  10
628.65387
  20
2055.8172
  0
VERTEX
  5
12f
  8
Layer_0
  10
627.99525
  20
2055.6978
  0
VERTEX
  5
130
  8
Layer_0
  10
627.34659
  20
2055.6347
  0
VERTEX
  5
131
  8
Layer_0
  10
626.69829
  20
2055.6271
  0
VERTEX
  5
132
  8
Layer_0
  10
626.0528
  20
2055.6747
  0
VERTEX
  5
133
  8
Layer_0
  10
625.41254
  20
2055.7769
  0
VERTEX
  5
134
  8
Layer_0
  10
624.77995
  20
2055.9332
  0
VERTEX
  5
135
  8
Layer_0
  10
624.15745
  20
2056.1432
  0
VERTEX
  5
136
  8
Layer_0
  10
623.54747
  20
2056.4064
  0
VERTEX
  5
137
  8
Layer_0
  10
622.95244
  20
2056.7222
  0
VERTEX
  5
138
  8
Layer_0
  10
622.38123
  20
2057.0863
  0
VERTEX
  5
139
  8
Layer_0
  10
621.8355
  20
2057.4971
  0
VERTEX
  5
13a
  8
Layer_0
  10
621.3171
  20
2057.9525
  0
VERTEX
  5
13b
  8
Layer_0
  10
620.82786
  20
2058.4507
  0
VERTEX
  5
13c
  8
Layer_0
  10
620.36964
  20
2058.9895
  0
VERTEX
  5
13d
  8
Layer_0
  10
619.94426
  20
2059.567
  0
VERTEX
  5
13e
  8
Layer_0
  10
619.55358
  20
2060.1811
  0
VERTEX
  5
13f
  8
Layer_0
  10
619.19944
  20
2060.8299
  0
VERTEX
  5
140
  8
Layer_0
  10
618.87822
  20
2061.5195
  0
VERTEX
  5
141
  8
Layer_0
  10
618.59785
  20
2062.2311
  0
VERTEX
  5
142
  8
Layer_0
  10
618.35894
  20
2062.9623
  0
VERTEX
  5
143
  8
Layer_0
  10
618.16211
  20
2063.7104
  0
VERTEX
  5
144
  8
Layer_0
  10
618.00796
  20
2064.4726
  0
VERTEX
  5
145
  8
Layer_0
  10
617.89709
  20
2065.2465
  0
VERTEX
  5
146
  8
Layer_0
  10
617.83012
  20
2066.0294
  0
VERTEX
  5
147
  8
Layer_0
  10
617.80765
  20
2066.8187
  42
-0.073064131
  0
VERTEX
  5
148
  8
Layer_0
  10
618.34094
  20
2070.4814
  42
-0.076192641
  0
VERTEX
  5
149
  8
Layer_0
  10
619.87933
  20
2073.7468
  42
-0.084392935
  0
VERTEX
  5
14a
  8
Layer_0
  10
622.24567
  20
2076.2402
  42
-0.093708534
  0
VERTEX
  5
14b
  8
Layer_0
  10
625.16882
  20
2077.6724
  42
-0.060240244
  0
VERTEX
  5
14c
  8
Layer_0
  10
626.75421
  20
2077.9031
  42
-0.059935456
  0
VERTEX
  5
14d
  8
Layer_0
  10
628.35034
  20
2077.7485
  42
-0.053947486
  0
VERTEX
  5
14e
  8
Layer_0
  10
629.99426
  20
2077.1951
  42
-0.037344754
  0
VERTEX
  5
14f
  8
Layer_0
  10
631.72314
  20
2076.2351
  0
SEQEND
  0
POLYLINE
  5
151
  8
Layer_0
  62
7
  70
1
  66
1
  10
0
  20
0
  30
0
  0
VERTEX
  5
151
  8
Layer_0
  10
599.75952
  20
2059.8345
  0
VERTEX
  5
152
  8
Layer_0
  10
599.75952
  20
2055.3005
  0
VERTEX
  5
153
  8
Layer_0
  10
597.48895
  20
2055.3005
  0
VERTEX
  5
154
  8
Layer_0
  10
595.21838
  20
2055.3005
  0
VERTEX
  5
155
  8
Layer_0
  10
595.21838
  20
2059.8345
  0
VERTEX
  5
156
  8
Layer_0
  10
595.21838
  20
2064.3687
  0
VERTEX
  5
157
  8
Layer_0
  10
597.48895
  20
2064.3687
  0
VERTEX
  5
158
  8
Layer_0
  10
599.75952
  20
2064.3687
  0
SEQEND
  0
POLYLINE
  5
15a
  8
Layer_0
  62
7
  70
1
  66
1
  10
0
  20
0
  30
0
  0
VERTEX
  5
15a
  8
Layer_0
  10
607.32813
  20
2059.8345
  0
VERTEX
  5
15b
  8
Layer_0
  10
607.32813
  20
2055.3005
  0
VERTEX
  5
15c
  8
Layer_0
  10
604.80524
  20
2055.3005
  0
VERTEX
  5
15d
  8
Layer_0
  10
602.28235
  20
2055.3005
  0
VERTEX
  5
15e
  8
Layer_0
  10
602.28235
  20
2059.8345
  0
VERTEX
  5
15f
  8
Layer_0
  10
602.28235
  20
2064.3687
  0
VERTEX
  5
160
  8
Layer_0
  10
604.80524
  20
2064.3687
  0
VERTEX
  5
161
  8
Layer_0
  10
607.32813
  20
2064.3687
  0
SEQEND
  0
POLYLINE
  5
163
  8
Layer_0
  62
7
  70
1
  66
1
  10
0
  20
0
  30
0
  0
VERTEX
  5
163
  8
Layer_0
  10
614.89667
  20
2059.8345
  0
VERTEX
  5
164
  8
Layer_0
  10
614.89667
  20
2055.3005
  0
VERTEX
  5
165
  8
Layer_0
  10
612.37378
  20
2055.3005
  0
VERTEX
  5
166
  8
Layer_0
  10
609.85095
  20
2055.3005
  0
VERTEX
  5
167
  8
Layer_0
  10
609.85095
  20
2059.8345
  0
VERTEX
  5
168
  8
Layer_0
  10
609.85095
  20
2064.3687
  0
VERTEX
  5
169
  8
Layer_0
  10
612.37378
  20
2064.3687
  0
VERTEX
  5
16a
  8
Layer_0
  10
614.89667
  20
2064.3687
  0
SEQEND
  0
POLYLINE
  5
16c
  8
Layer_0
  62
7
  70
1
  66
1
  10
0
  20
0
  30
0
  0
VERTEX
  5
16c
  8
Layer_0
  10
645.67554
  20
2059.8345
  0
VERTEX
  5
16d
  8
Layer_0
  10
645.67554
  20
2055.3005
  0
VERTEX
  5
16e
  8
Layer_0
  10
643.40491
  20
2055.3005
  0
VERTEX
  5
16f
  8
Layer_0
  10
641.1344
  20
2055.3005
  0
VERTEX
  5
170
  8
Layer_0
  10
641.1344
  20
2059.8345
  0
VERTEX
  5
171
  8
Layer_0
  10
641.1344
  20
2064.3687
  0
VERTEX
  5
172
  8
Layer_0
  10
643.40491
  20
2064.3687
  0
VERTEX
  5
173
  8
Layer_0
  10
645.67554
  20
2064.3687
  0
SEQEND
  0
POLYLINE
  5
175
  8
Layer_0
  62
7
  70
1
  66
1
  10
0
  20
0
  30
0
  0
VERTEX
  5
175
  8
Layer_0
  10
653.24408
  20
2059.8345
  0
VERTEX
  5
176
  8
Layer_0
  10
653.24408
  20
2055.3005
  0
VERTEX
  5
177
  8
Layer_0
  10
650.97351
  20
2055.3005
  0
VERTEX
  5
178
  8
Layer_0
  10
648.70294
  20
2055.3005
  0
VERTEX
  5
179
  8
Layer_0
  10
648.70294
  20
2059.8345
  0
VERTEX
  5
17a
  8
Layer_0
  10
648.70294
  20
2064.3687
  0
VERTEX
  5
17b
  8
Layer_0
  10
650.97351
  20
2064.3687
  0
VERTEX
  5
17c
  8
Layer_0
  10
653.24408
  20
2064.3687
  0
SEQEND
  0
POLYLINE
  5
17e
  8
Layer_0
  62
7
  70
1
  66
1
  10
0
  20
0
  30
0
  0
VERTEX
  5
17e
  8
Layer_0
  10
660.81262
  20
2059.8345
  0
VERTEX
  5
17f
  8
Layer_0
  10
660.81262
  20
2055.3005
  0
VERTEX
  5
180
  8
Layer_0
  10
658.54211
  20
2055.3005
  0
VERTEX
  5
181
  8
Layer_0
  10
656.27148
  20
2055.3005
  0
VERTEX
  5
182
  8
Layer_0
  10
656.27148
  20
2059.8345
  0
VERTEX
  5
183
  8
Layer_0
  10
656.27148
  20
2064.3687
  0
VERTEX
  5
184
  8
Layer_0
  10
658.54211
  20
2064.3687
  0
VERTEX
  5
185
  8
Layer_0
  10
660.81262
  20
2064.3687
  0
SEQEND
  0
POLYLINE
  5
187
  8
Layer_0
  62
7
  70
1
  66
1
  10
0
  20
0
  30
0
  0
VERTEX
  5
187
  8
Layer_0
  10
587.81683
  20
2058.574
  42
-0.03258057
  0
VERTEX
  5
188
  8
Layer_0
  10
587.74487
  20
2057.4722
  42
-0.14645799
  0
VERTEX
  5
189
  8
Layer_0
  10
587.48022
  20
2056.8887
  42
-0.167109
  0
VERTEX
  5
18a
  8
Layer_0
  10
586.95947
  20
2056.5906
  42
-0.049115171
  0
VERTEX
  5
18b
  8
Layer_0
  10
586.02527
  20
2056.4988
  42
-0.10125719
  0
VERTEX
  5
18c
  8
Layer_0
  10
584.6333
  20
2056.7817
  42
-0.11928238
  0
VERTEX
  5
18d
  8
Layer_0
  10
583.56354
  20
2057.573
  42
-0.1350176
  0
VERTEX
  5
18e
  8
Layer_0
  10
583.05078
  20
2058.6975
  42
-0.1381891
  0
VERTEX
  5
18f
  8
Layer_0
  10
583.19769
  20
2059.9097
  42
-0.10297809
  0
VERTEX
  5
190
  8
Layer_0
  10
583.54547
  20
2060.4155
  42
-0.10216255
  0
VERTEX
  5
191
  8
Layer_0
  10
584.07269
  20
2060.7458
  42
-0.07787977
  0
VERTEX
  5
192
  8
Layer_0
  10
584.80243
  20
2060.896
  42
-0.038477143
  0
VERTEX
  5
193
  8
Layer_0
  10
585.75208
  20
2060.8684
  42
-0.038950392
  0
VERTEX
  5
194
  8
Layer_0
  10
586.84723
  20
2060.6653
  42
-0.14520704
  0
VERTEX
  5
195
  8
Layer_0
  10
587.43762
  20
2060.3083
  42
-0.1468751
  0
VERTEX
  5
196
  8
Layer_0
  10
587.73315
  20
2059.6904
  42
-0.03738565
  0
SEQEND
  0
POLYLINE
  5
198
  8
Layer_0
  62
7
  70
1
  66
1
  10
0
  20
0
  30
0
  0
VERTEX
  5
198
  8
Layer_0
  10
624.8913
  20
2052.1787
  42
-0.03654763
  0
VERTEX
  5
199
  8
Layer_0
  10
624.90955
  20
2051.3875
  42
-0.093619941
  0
VERTEX
  5
19a
  8
Layer_0
  10
624.77814
  20
2050.834
  42
-0.12185298
  0
VERTEX
  5
19b
  8
Layer_0
  10
624.479
  20
2050.4448
  42
-0.074957628
  0
VERTEX
  5
19c
  8
Layer_0
  10
623.98407
  20
2050.1641
  42
-0.13564589
  0
VERTEX
  5
19d
  8
Layer_0
  10
623.08972
  20
2050.0781
  42
-0.12929352
  0
VERTEX
  5
19e
  8
Layer_0
  10
622.2561
  20
2050.4717
  42
-0.11395047
  0
VERTEX
  5
19f
  8
Layer_0
  10
621.66821
  20
2051.2537
  42
-0.10707943
  0
VERTEX
  5
1a0
  8
Layer_0
  10
621.45605
  20
2052.2512
  42
-0.061173353
  0
VERTEX
  5
1a1
  8
Layer_0
  10
621.56848
  20
2053.1726
  42
-0.15547272
  0
VERTEX
  5
1a2
  8
Layer_0
  10
621.90454
  20
2053.7371
  42
-0.158514
  0
VERTEX
  5
1a3
  8
Layer_0
  10
622.50623
  20
2053.9958
  42
-0.054931406
  0
VERTEX
  5
1a4
  8
Layer_0
  10
623.45551
  20
2053.968
  42
-0.064931513
  0
VERTEX
  5
1a5
  8
Layer_0
  10
624.07751
  20
2053.7961
  42
-0.12478227
  0
VERTEX
  5
1a6
  8
Layer_0
  10
624.49097
  20
2053.4775
  42
-0.10328703
  0
VERTEX
  5
1a7
  8
Layer_0
  10
624.7489
  20
2052.9619
  42
-0.042104264
  0
SEQEND
  0
POLYLINE
  5
1a9
  8
Layer_0
  62
7
  70
1
  66
1
  10
0
  20
0
  30
0
  0
VERTEX
  5
1a9
  8
Layer_0
  10
632.45483
  20
2052.5273
  42
-0.10609725
  0
VERTEX
  5
1aa
  8
Layer_0
  10
632.35474
  20
2051.4292
  42
-0.1220613
  0
VERTEX
  5
1ab
  8
Layer_0
  10
631.82617
  20
2050.5417
  42
-0.14338995
  0
VERTEX
  5
1ac
  8
Layer_0
  10
630.99353
  20
2050.0796
  42
-0.1445369
  0
VERTEX
  5
1ad
  8
Layer_0
  10
630.05798
  20
2050.1528
  42
-0.17145505
  0
VERTEX
  5
1ae
  8
Layer_0
  10
629.43115
  20
2050.7051
  42
-0.085570613
  0
VERTEX
  5
1af
  8
Layer_0
  10
629.05127
  20
2051.7339
  42
-0.080524763
  0
VERTEX
  5
1b0
  8
Layer_0
  10
629.02185
  20
2052.8682
  42
-0.14118275
  0
VERTEX
  5
1b1
  8
Layer_0
  10
629.38422
  20
2053.7163
  42
-0.20716621
  0
VERTEX
  5
1b2
  8
Layer_0
  10
630.11768
  20
2054.1055
  42
-0.10729718
  0
VERTEX
  5
1b3
  8
Layer_0
  10
631.14929
  20
2053.9414
  42
-0.099226614
  0
VERTEX
  5
1b4
  8
Layer_0
  10
632.06177
  20
2053.3525
  42
-0.17345439
  0
SEQEND
  0
POLYLINE
  5
1b6
  8
Layer_0
  62
7
  70
1
  66
1
  10
0
  20
0
  30
0
  0
VERTEX
  5
1b6
  8
Layer_0
  10
671.59454
  20
2059.7434
  42
-0.11651956
  0
VERTEX
  5
1b7
  8
Layer_0
  10
671.66425
  20
2058.5706
  42
-0.11535879
  0
VERTEX
  5
1b8
  8
Layer_0
  10
671.21204
  20
2057.4885
  42
-0.12177969
  0
VERTEX
  5
1b9
  8
Layer_0
  10
670.33313
  20
2056.7405
  42
-0.12253575
  0
VERTEX
  5
1ba
  8
Layer_0
  10
669.22552
  20
2056.4988
  42
-0.14277159
  0
VERTEX
  5
1bb
  8
Layer_0
  10
668.31274
  20
2056.8022
  42
-0.14890172
  0
VERTEX
  5
1bc
  8
Layer_0
  10
667.71631
  20
2057.5635
  42
-0.11354585
  0
VERTEX
  5
1bd
  8
Layer_0
  10
667.54468
  20
2058.6892
  42
-0.071161507
  0
VERTEX
  5
1be
  8
Layer_0
  10
667.82776
  20
2059.9976
  42
-0.2164528
  0
VERTEX
  5
1bf
  8
Layer_0
  10
668.50574
  20
2060.7107
  42
-0.10776206
  0
VERTEX
  5
1c0
  8
Layer_0
  10
669.73962
  20
2060.8962
  42
-0.10517258
  0
VERTEX
  5
1c1
  8
Layer_0
  10
670.9599
  20
2060.5461
  42
-0.20054922
  0
SEQEND
  0
POLYLINE
  5
1c3
  8
Layer_0
  62
7
  70
1
  66
1
  10
0
  20
0
  30
0
  0
VERTEX
  5
1c3
  8
Layer_0
  10
610.35553
  20
2039.2804
  0
VERTEX
  5
1c4
  8
Layer_0
  10
610.35553
  20
2035.351
  0
VERTEX
  5
1c5
  8
Layer_0
  10
612.37378
  20
2035.351
  0
VERTEX
  5
1c6
  8
Layer_0
  10
614.39209
  20
2035.351
  0
VERTEX
  5
1c7
  8
Layer_0
  10
614.39209
  20
2031.4214
  0
VERTEX
  5
1c8
  8
Layer_0
  10
614.39209
  20
2027.4919
  0
VERTEX
  5
1c9
  8
Layer_0
  10
612.37378
  20
2027.4919
  0
VERTEX
  5
1ca
  8
Layer_0
  10
610.35553
  20
2027.4919
  0
VERTEX
  5
1cb
  8
Layer_0
  10
610.35553
  20
2023.5625
  0
VERTEX
  5
1cc
  8
Layer_0
  10
610.35553
  20
2019.6331
  0
VERTEX
  5
1cd
  8
Layer_0
  10
607.07581
  20
2019.6331
  0
VERTEX
  5
1ce
  8
Layer_0
  10
603.79614
  20
2019.6331
  0
VERTEX
  5
1cf
  8
Layer_0
  10
603.79614
  20
2023.5625
  0
VERTEX
  5
1d0
  8
Layer_0
  10
603.79614
  20
2027.4919
  0
VERTEX
  5
1d1
  8
Layer_0
  10
602.03009
  20
2027.4919
  0
VERTEX
  5
1d2
  8
Layer_0
  10
600.2641
  20
2027.4919
  0
VERTEX
  5
1d3
  8
Layer_0
  10
600.2641
  20
2031.4214
  0
VERTEX
  5
1d4
  8
Layer_0
  10
600.2641
  20
2035.351
  0
VERTEX
  5
1d5
  8
Layer_0
  10
602.03009
  20
2035.351
  0
VERTEX
  5
1d6
  8
Layer_0
  10
603.79614
  20
2035.351
  0
VERTEX
  5
1d7
  8
Layer_0
  10
603.79614
  20
2039.2804
  0
VERTEX
  5
1d8
  8
Layer_0
  10
603.79614
  20
2043.2098
  0
VERTEX
  5
1d9
  8
Layer_0
  10
607.07581
  20
2043.2098
  0
VERTEX
  5
1da
  8
Layer_0
  10
610.35553
  20
2043.2098
  0
SEQEND
  0
POLYLINE
  5
1dc
  8
Layer_0
  62
7
  70
1
  66
1
  10
0
  20
0
  30
0
  0
VERTEX
  5
1dc
  8
Layer_0
  10
651.73035
  20
2039.2804
  0
VERTEX
  5
1dd
  8
Layer_0
  10
651.73035
  20
2035.351
  0
VERTEX
  5
1de
  8
Layer_0
  10
653.49634
  20
2035.351
  0
VERTEX
  5
1df
  8
Layer_0
  10
655.26233
  20
2035.351
  0
VERTEX
  5
1e0
  8
Layer_0
  10
655.26233
  20
2031.4214
  0
VERTEX
  5
1e1
  8
Layer_0
  10
655.26233
  20
2027.4919
  0
VERTEX
  5
1e2
  8
Layer_0
  10
653.49634
  20
2027.4919
  0
VERTEX
  5
1e3
  8
Layer_0
  10
651.73035
  20
2027.4919
  0
VERTEX
  5
1e4
  8
Layer_0
  10
651.73035
  20
2023.5625
  0
VERTEX
  5
1e5
  8
Layer_0
  10
651.73035
  20
2019.6331
  0
VERTEX
  5
1e6
  8
Layer_0
  10
648.19836
  20
2019.6331
  0
VERTEX
  5
1e7
  8
Layer_0
  10
644.66638
  20
2019.6331
  0
VERTEX
  5
1e8
  8
Layer_0
  10
644.66638
  20
2023.5625
  0
VERTEX
  5
1e9
  8
Layer_0
  10
644.66638
  20
2027.4919
  0
VERTEX
  5
1ea
  8
Layer_0
  10
642.90039
  20
2027.4919
  0
VERTEX
  5
1eb
  8
Layer_0
  10
641.1344
  20
2027.4919
  0
VERTEX
  5
1ec
  8
Layer_0
  10
641.1344
  20
2031.4214
  0
VERTEX
  5
1ed
  8
Layer_0
  10
641.1344
  20
2035.351
  0
VERTEX
  5
1ee
  8
Layer_0
  10
642.90039
  20
2035.351
  0
VERTEX
  5
1ef
  8
Layer_0
  10
644.66638
  20
2035.351
  0
VERTEX
  5
1f0
  8
Layer_0
  10
644.66638
  20
2039.2804
  0
VERTEX
  5
1f1
  8
Layer_0
  10
644.66638
  20
2043.2098
  0
VERTEX
  5
1f2
  8
Layer_0
  10
648.19836
  20
2043.2098
  0
VERTEX
  5
1f3
  8
Layer_0
  10
651.73035
  20
2043.2098
  0
SEQEND
  0
POLYLINE
  5
1f5
  8
Layer_0
  62
7
  70
1
  66
1
  10
0
  20
0
  30
0
  0
VERTEX
  5
1f5
  8
Layer_0
  10
665.11853
  20
2029.804
  42
-0.10932898
  0
VERTEX
  5
1f6
  8
Layer_0
  10
665.82617
  20
2028.7085
  42
-0.12659994
  0
VERTEX
  5
1f7
  8
Layer_0
  10
665.95404
  20
2027.4775
  42
-0.1262627
  0
VERTEX
  5
1f8
  8
Layer_0
  10
665.47107
  20
2026.3362
  42
-0.10865844
  0
VERTEX
  5
1f9
  8
Layer_0
  10
664.47278
  20
2025.4906
  42
-0.11792655
  0
VERTEX
  5
1fa
  8
Layer_0
  10
663.104
  20
2025.1384
  42
-0.16108479
  0
VERTEX
  5
1fb
  8
Layer_0
  10
661.89679
  20
2025.5137
  42
-0.14649497
  0
VERTEX
  5
1fc
  8
Layer_0
  10
661.07263
  20
2026.577
  42
-0.092131115
  0
VERTEX
  5
1fd
  8
Layer_0
  10
660.78333
  20
2028.1324
  42
-0.14162602
  0
VERTEX
  5
1fe
  8
Layer_0
  10
661.20074
  20
2029.5742
  42
-0.16140603
  0
VERTEX
  5
1ff
  8
Layer_0
  10
662.30975
  20
2030.4839
  42
-0.15635105
  0
VERTEX
  5
200
  8
Layer_0
  10
663.7699
  20
2030.5682
  42
-0.13265827
  0
SEQEND
  0
POLYLINE
  5
202
  8
Layer_0
  62
7
  70
1
  66
1
  10
0
  20
0
  30
0
  0
VERTEX
  5
202
  8
Layer_0
  10
603.2915
  20
2007.5424
  0
VERTEX
  5
203
  8
Layer_0
  10
603.2915
  20
2000.2878
  0
VERTEX
  5
204
  8
Layer_0
  10
601.021
  20
2000.2878
  0
VERTEX
  5
205
  8
Layer_0
  10
598.75037
  20
2000.2878
  0
VERTEX
  5
206
  8
Layer_0
  10
598.75037
  20
2007.5424
  0
VERTEX
  5
207
  8
Layer_0
  10
598.75037
  20
2014.7968
  0
VERTEX
  5
208
  8
Layer_0
  10
601.021
  20
2014.7968
  0
VERTEX
  5
209
  8
Layer_0
  10
603.2915
  20
2014.7968
  0
SEQEND
  0
POLYLINE
  5
20b
  8
Layer_0
  62
7
  70
1
  66
1
  10
0
  20
0
  30
0
  0
VERTEX
  5
20b
  8
Layer_0
  10
656.27148
  20
2007.5424
  0
VERTEX
  5
20c
  8
Layer_0
  10
656.27148
  20
2000.2878
  0
VERTEX
  5
20d
  8
Layer_0
  10
654.00098
  20
2000.2878
  0
VERTEX
  5
20e
  8
Layer_0
  10
651.73035
  20
2000.2878
  0
VERTEX
  5
20f
  8
Layer_0
  10
651.73035
  20
2007.5424
  0
VERTEX
  5
210
  8
Layer_0
  10
651.73035
  20
2014.7968
  0
VERTEX
  5
211
  8
Layer_0
  10
654.00098
  20
2014.7968
  0
VERTEX
  5
212
  8
Layer_0
  10
656.27148
  20
2014.7968
  0
SEQEND
  0
POLYLINE
  5
214
  8
Layer_0
  62
7
  70
1
  66
1
  10
0
  20
0
  30
0
  0
VERTEX
  5
214
  8
Layer_0
  10
628.64807
  20
1995.7213
  42
-0.13701634
  0
VERTEX
  5
215
  8
Layer_0
  10
629.00397
  20
1994.7322
  42
-0.14533065
  0
VERTEX
  5
216
  8
Layer_0
  10
628.79541
  20
1993.7208
  42
-0.14493231
  0
VERTEX
  5
217
  8
Layer_0
  10
628.05975
  20
1992.9678
  42
-0.1251036
  0
VERTEX
  5
218
  8
Layer_0
  10
627.00635
  20
1992.6959
  42
-0.1251167
  0
VERTEX
  5
219
  8
Layer_0
  10
625.953
  20
1992.9678
  42
-0.1449201
  0
VERTEX
  5
21a
  8
Layer_0
  10
625.21729
  20
1993.7208
  42
-0.14533731
  0
VERTEX
  5
21b
  8
Layer_0
  10
625.00879
  20
1994.7322
  42
-0.13698448
  0
VERTEX
  5
21c
  8
Layer_0
  10
625.36462
  20
1995.7213
  42
-0.056873517
  0
VERTEX
  5
21d
  8
Layer_0
  10
625.70288
  20
1996.0942
  42
-0.045745072
  0
VERTEX
  5
21e
  8
Layer_0
  10
626.1369
  20
1996.4097
  42
-0.048983732
  0
VERTEX
  5
21f
  8
Layer_0
  10
626.59558
  20
1996.6249
  42
-0.085211916
  0
VERTEX
  5
220
  8
Layer_0
  10
627.00635
  20
1996.6959
  42
-0.085211916
  0
VERTEX
  5
221
  8
Layer_0
  10
627.41711
  20
1996.6249
  42
-0.048983732
  0
VERTEX
  5
222
  8
Layer_0
  10
627.87585
  20
1996.4097
  42
-0.045791474
  0
VERTEX
  5
223
  8
Layer_0
  10
628.30981
  20
1996.0942
  42
-0.056873517
  0
SEQEND
  0
POLYLINE
  5
225
  8
Layer_0
  62
7
  70
1
  66
1
  10
0
  20
0
  30
0
  0
VERTEX
  5
225
  8
Layer_0
  10
603.2915
  20
1918.3734
  0
VERTEX
  5
226
  8
Layer_0
  10
603.2915
  20
1910.8168
  0
VERTEX
  5
227
  8
Layer_0
  10
601.021
  20
1910.8168
  0
VERTEX
  5
228
  8
Layer_0
  10
598.75037
  20
1910.8168
  0
VERTEX
  5
229
  8
Layer_0
  10
598.75037
  20
1918.3734
  0
VERTEX
  5
22a
  8
Layer_0
  10
598.75037
  20
1925.9302
  0
VERTEX
  5
22b
  8
Layer_0
  10
601.021
  20
1925.9302
  0
VERTEX
  5
22c
  8
Layer_0
  10
603.2915
  20
1925.9302
  0
SEQEND
  0
POLYLINE
  5
22e
  8
Layer_0
  62
7
  70
1
  66
1
  10
0
  20
0
  30
0
  0
VERTEX
  5
22e
  8
Layer_0
  10
656.27148
  20
1918.3734
  0
VERTEX
  5
22f
  8
Layer_0
  10
656.27148
  20
1910.8168
  0
VERTEX
  5
230
  8
Layer_0
  10
654.00098
  20
1910.8168
  0
VERTEX
  5
231
  8
Layer_0
  10
651.73035
  20
1910.8168
  0
VERTEX
  5
232
  8
Layer_0
  10
651.73035
  20
1918.3734
  0
VERTEX
  5
233
  8
Layer_0
  10
651.73035
  20
1925.9302
  0
VERTEX
  5
234
  8
Layer_0
  10
654.00098
  20
1925.9302
  0
VERTEX
  5
235
  8
Layer_0
  10
656.27148
  20
1925.9302
  0
SEQEND
  0
POLYLINE
  5
237
  8
Layer_0
  62
7
  70
1
  66
1
  10
0
  20
0
  30
0
  0
VERTEX
  5
237
  8
Layer_0
  10
610.35553
  20
1902.6555
  0
VERTEX
  5
238
  8
Layer_0
  10
610.35553
  20
1898.7261
  0
VERTEX
  5
239
  8
Layer_0
  10
612.37378
  20
1898.7261
  0
VERTEX
  5
23a
  8
Layer_0
  10
614.39209
  20
1898.7261
  0
VERTEX
  5
23b
  8
Layer_0
  10
614.39209
  20
1894.7966
  0
VERTEX
  5
23c
  8
Layer_0
  10
614.39209
  20
1890.8672
  0
VERTEX
  5
23d
  8
Layer_0
  10
612.37378
  20
1890.8672
  0
VERTEX
  5
23e
  8
Layer_0
  10
610.35553
  20
1890.8672
  0
VERTEX
  5
23f
  8
Layer_0
  10
610.35553
  20
1886.9376
  0
VERTEX
  5
240
  8
Layer_0
  10
610.35553
  20
1883.0082
  0
VERTEX
  5
241
  8
Layer_0
  10
607.07581
  20
1883.0082
  0
VERTEX
  5
242
  8
Layer_0
  10
603.79614
  20
1883.0082
  0
VERTEX
  5
243
  8
Layer_0
  10
603.79614
  20
1886.9376
  0
VERTEX
  5
244
  8
Layer_0
  10
603.79614
  20
1890.8672
  0
VERTEX
  5
245
  8
Layer_0
  10
602.03009
  20
1890.8672
  0
VERTEX
  5
246
  8
Layer_0
  10
600.2641
  20
1890.8672
  0
VERTEX
  5
247
  8
Layer_0
  10
600.2641
  20
1894.7966
  0
VERTEX
  5
248
  8
Layer_0
  10
600.2641
  20
1898.7261
  0
VERTEX
  5
249
  8
Layer_0
  10
602.03009
  20
1898.7261
  0
VERTEX
  5
24a
  8
Layer_0
  10
603.79614
  20
1898.7261
  0
VERTEX
  5
24b
  8
Layer_0
  10
603.79614
  20
1902.6555
  0
VERTEX
  5
24c
  8
Layer_0
  10
603.79614
  20
1906.5851
  0
VERTEX
  5
24d
  8
Layer_0
  10
607.07581
  20
1906.5851
  0
VERTEX
  5
24e
  8
Layer_0
  10
610.35553
  20
1906.5851
  0
SEQEND
  0
POLYLINE
  5
250
  8
Layer_0
  62
7
  70
1
  66
1
  10
0
  20
0
  30
0
  0
VERTEX
  5
250
  8
Layer_0
  10
651.73035
  20
1902.6555
  0
VERTEX
  5
251
  8
Layer_0
  10
651.73035
  20
1898.7261
  0
VERTEX
  5
252
  8
Layer_0
  10
653.49634
  20
1898.7261
  0
VERTEX
  5
253
  8
Layer_0
  10
655.26233
  20
1898.7261
  0
VERTEX
  5
254
  8
Layer_0
  10
655.26233
  20
1894.7966
  0
VERTEX
  5
255
  8
Layer_0
  10
655.26233
  20
1890.8672
  0
VERTEX
  5
256
  8
Layer_0
  10
653.49634
  20
1890.8672
  0
VERTEX
  5
257
  8
Layer_0
  10
651.73035
  20
1890.8672
  0
VERTEX
  5
258
  8
Layer_0
  10
651.73035
  20
1886.9376
  0
VERTEX
  5
259
  8
Layer_0
  10
651.73035
  20
1883.0082
  0
VERTEX
  5
25a
  8
Layer_0
  10
648.19836
  20
1883.0082
  0
VERTEX
  5
25b
  8
Layer_0
  10
644.66638
  20
1883.0082
  0
VERTEX
  5
25c
  8
Layer_0
  10
644.66638
  20
1886.9376
  0
VERTEX
  5
25d
  8
Layer_0
  10
644.66638
  20
1890.8672
  0
VERTEX
  5
25e
  8
Layer_0
  10
642.90039
  20
1890.8672
  0
VERTEX
  5
25f
  8
Layer_0
  10
641.1344
  20
1890.8672
  0
VERTEX
  5
260
  8
Layer_0
  10
641.1344
  20
1894.7966
  0
VERTEX
  5
261
  8
Layer_0
  10
641.1344
  20
1898.7261
  0
VERTEX
  5
262
  8
Layer_0
  10
642.90039
  20
1898.7261
  0
VERTEX
  5
263
  8
Layer_0
  10
644.66638
  20
1898.7261
  0
VERTEX
  5
264
  8
Layer_0
  10
644.66638
  20
1902.6555
  0
VERTEX
  5
265
  8
Layer_0
  10
644.66638
  20
1906.5851
  0
VERTEX
  5
266
  8
Layer_0
  10
648.19836
  20
1906.5851
  0
VERTEX
  5
267
  8
Layer_0
  10
651.73035
  20
1906.5851
  0
SEQEND
  0
POLYLINE
  5
269
  8
Layer_0
  62
7
  70
1
  66
1
  10
0
  20
0
  30
0
  0
VERTEX
  5
269
  8
Layer_0
  10
628.64807
  20
1900.8093
  42
-0.13698501
  0
VERTEX
  5
26a
  8
Layer_0
  10
629.00397
  20
1899.8202
  42
-0.14535531
  0
VERTEX
  5
26b
  8
Layer_0
  10
628.79541
  20
1898.809
  42
-0.14493231
  0
VERTEX
  5
26c
  8
Layer_0
  10
628.05975
  20
1898.0559
  42
-0.12512787
  0
VERTEX
  5
26d
  8
Layer_0
  10
627.00635
  20
1897.7839
  42
-0.12512787
  0
VERTEX
  5
26e
  8
Layer_0
  10
625.953
  20
1898.0559
  42
-0.14491702
  0
VERTEX
  5
26f
  8
Layer_0
  10
625.21729
  20
1898.809
  42
-0.14535531
  0
VERTEX
  5
270
  8
Layer_0
  10
625.00879
  20
1899.8202
  42
-0.13698501
  0
VERTEX
  5
271
  8
Layer_0
  10
625.36462
  20
1900.8093
  42
-0.056824876
  0
VERTEX
  5
272
  8
Layer_0
  10
625.70288
  20
1901.1824
  42
-0.045789822
  0
VERTEX
  5
273
  8
Layer_0
  10
626.1369
  20
1901.4977
  42
-0.049022014
  0
VERTEX
  5
274
  8
Layer_0
  10
626.59558
  20
1901.713
  42
-0.085211916
  0
VERTEX
  5
275
  8
Layer_0
  10
627.00635
  20
1901.7839
  42
-0.085211916
  0
VERTEX
  5
276
  8
Layer_0
  10
627.41711
  20
1901.713
  42
-0.048983732
  0
VERTEX
  5
277
  8
Layer_0
  10
627.87585
  20
1901.4977
  42
-0.045801239
  0
VERTEX
  5
278
  8
Layer_0
  10
628.30981
  20
1901.1824
  42
-0.056824876
  0
SEQEND
  0
POLYLINE
  5
27a
  8
Layer_0
  62
7
  70
1
  66
1
  10
0
  20
0
  30
0
  0
VERTEX
  5
27a
  8
Layer_0
  10
587.9021
  20
1869.4061
  42
-0.025654376
  0
VERTEX
  5
27b
  8
Layer_0
  10
587.84979
  20
1868.3865
  42
-0.14874226
  0
VERTEX
  5
27c
  8
Layer_0
  10
587.65039
  20
1867.8955
  42
-0.18432538
  0
VERTEX
  5
27d
  8
Layer_0
  10
587.24219
  20
1867.6556
  42
-0.037125619
  0
VERTEX
  5
27e
  8
Layer_0
  10
586.39532
  20
1867.5925
  42
-0.044585335
  0
VERTEX
  5
27f
  8
Layer_0
  10
585.70068
  20
1867.6548
  42
-0.099230871
  0
VERTEX
  5
280
  8
Layer_0
  10
585.20673
  20
1867.8522
  42
-0.11690003
  0
VERTEX
  5
281
  8
Layer_0
  10
584.88654
  20
1868.1927
  42
-0.093298018
  0
VERTEX
  5
282
  8
Layer_0
  10
584.71381
  20
1868.6796
  42
-0.10266289
  0
VERTEX
  5
283
  8
Layer_0
  10
584.76117
  20
1869.7446
  42
-0.1042476
  0
VERTEX
  5
284
  8
Layer_0
  10
585.21765
  20
1870.6875
  42
-0.12232202
  0
VERTEX
  5
285
  8
Layer_0
  10
585.97235
  20
1871.2875
  42
-0.14809891
  0
VERTEX
  5
286
  8
Layer_0
  10
586.84882
  20
1871.4
  42
-0.090277548
  0
VERTEX
  5
287
  8
Layer_0
  10
587.35376
  20
1871.2141
  42
-0.13967055
  0
VERTEX
  5
288
  8
Layer_0
  10
587.67566
  20
1870.8687
  42
-0.092540183
  0
VERTEX
  5
289
  8
Layer_0
  10
587.84985
  20
1870.3003
  42
-0.029255956
  0
SEQEND
  0
POLYLINE
  5
28b
  8
Layer_0
  62
7
  70
1
  66
1
  10
0
  20
0
  30
0
  0
VERTEX
  5
28b
  8
Layer_0
  10
668.86566
  20
1870.6443
  42
-0.094829567
  0
VERTEX
  5
28c
  8
Layer_0
  10
669.34119
  20
1869.5546
  42
-0.15468938
  0
VERTEX
  5
28d
  8
Layer_0
  10
669.2644
  20
1868.5496
  42
-0.17902172
  0
VERTEX
  5
28e
  8
Layer_0
  10
668.64783
  20
1867.8451
  42
-0.11950925
  0
VERTEX
  5
28f
  8
Layer_0
  10
667.62439
  20
1867.5925
  42
-0.10979408
  0
VERTEX
  5
290
  8
Layer_0
  10
666.65802
  20
1867.8105
  42
-0.16613117
  0
VERTEX
  5
291
  8
Layer_0
  10
666.039
  20
1868.4293
  42
-0.13043799
  0
VERTEX
  5
292
  8
Layer_0
  10
665.83118
  20
1869.4056
  42
-0.066617027
  0
VERTEX
  5
293
  8
Layer_0
  10
666.05212
  20
1870.6505
  42
-0.17944605
  0
VERTEX
  5
294
  8
Layer_0
  10
666.51385
  20
1871.2665
  42
-0.13908778
  0
VERTEX
  5
295
  8
Layer_0
  10
667.30096
  20
1871.493
  42
-0.12234128
  0
VERTEX
  5
296
  8
Layer_0
  10
668.17651
  20
1871.2695
  42
-0.11953621
  0
SEQEND
  0
POLYLINE
  5
298
  8
Layer_0
  62
7
  70
1
  66
1
  10
0
  20
0
  30
0
  0
VERTEX
  5
298
  8
Layer_0
  10
645.67554
  20
1861.5472
  0
VERTEX
  5
299
  8
Layer_0
  10
645.67554
  20
1857.0132
  0
VERTEX
  5
29a
  8
Layer_0
  10
643.40491
  20
1857.0132
  0
VERTEX
  5
29b
  8
Layer_0
  10
641.1344
  20
1857.0132
  0
VERTEX
  5
29c
  8
Layer_0
  10
641.1344
  20
1861.5472
  0
VERTEX
  5
29d
  8
Layer_0
  10
641.1344
  20
1866.0812
  0
VERTEX
  5
29e
  8
Layer_0
  10
643.40491
  20
1866.0812
  0
VERTEX
  5
29f
  8
Layer_0
  10
645.67554
  20
1866.0812
  0
SEQEND
  0
POLYLINE
  5
2a1
  8
Layer_0
  62
7
  70
1
  66
1
  10
0
  20
0
  30
0
  0
VERTEX
  5
2a1
  8
Layer_0
  10
653.24408
  20
1861.5472
  0
VERTEX
  5
2a2
  8
Layer_0
  10
653.24408
  20
1857.0132
  0
VERTEX
  5
2a3
  8
Layer_0
  10
650.97351
  20
1857.0132
  0
VERTEX
  5
2a4
  8
Layer_0
  10
648.70294
  20
1857.0132
  0
VERTEX
  5
2a5
  8
Layer_0
  10
648.70294
  20
1861.5472
  0
VERTEX
  5
2a6
  8
Layer_0
  10
648.70294
  20
1866.0812
  0
VERTEX
  5
2a7
  8
Layer_0
  10
650.97351
  20
1866.0812
  0
VERTEX
  5
2a8
  8
Layer_0
  10
653.24408
  20
1866.0812
  0
SEQEND
  0
POLYLINE
  5
2aa
  8
Layer_0
  62
7
  70
1
  66
1
  10
0
  20
0
  30
0
  0
VERTEX
  5
2aa
  8
Layer_0
  10
660.81262
  20
1861.5472
  0
VERTEX
  5
2ab
  8
Layer_0
  10
660.81262
  20
1857.0132
  0
VERTEX
  5
2ac
  8
Layer_0
  10
658.54211
  20
1857.0132
  0
VERTEX
  5
2ad
  8
Layer_0
  10
656.27148
  20
1857.0132
  0
VERTEX
  5
2ae
  8
Layer_0
  10
656.27148
  20
1861.5472
  0
VERTEX
  5
2af
  8
Layer_0
  10
656.27148
  20
1866.0812
  0
VERTEX
  5
2b0
  8
Layer_0
  10
658.54211
  20
1866.0812
  0
VERTEX
  5
2b1
  8
Layer_0
  10
660.81262
  20
1866.0812
  0
SEQEND
  0
POLYLINE
  5
2b3
  8
Layer_0
  62
7
  70
1
  66
1
  10
0
  20
0
  30
0
  0
VERTEX
  5
2b3
  8
Layer_0
  10
599.75952
  20
1860.9426
  0
VERTEX
  5
2b4
  8
Layer_0
  10
599.75952
  20
1856.4087
  0
VERTEX
  5
2b5
  8
Layer_0
  10
597.48895
  20
1856.4087
  0
VERTEX
  5
2b6
  8
Layer_0
  10
595.21838
  20
1856.4087
  0
VERTEX
  5
2b7
  8
Layer_0
  10
595.21838
  20
1860.9426
  0
VERTEX
  5
2b8
  8
Layer_0
  10
595.21838
  20
1865.4767
  0
VERTEX
  5
2b9
  8
Layer_0
  10
597.48895
  20
1865.4767
  0
VERTEX
  5
2ba
  8
Layer_0
  10
599.75952
  20
1865.4767
  0
SEQEND
  0
POLYLINE
  5
2bc
  8
Layer_0
  62
7
  70
1
  66
1
  10
0
  20
0
  30
0
  0
VERTEX
  5
2bc
  8
Layer_0
  10
607.32813
  20
1860.9426
  0
VERTEX
  5
2bd
  8
Layer_0
  10
607.32813
  20
1856.4087
  0
VERTEX
  5
2be
  8
Layer_0
  10
604.80524
  20
1856.4087
  0
VERTEX
  5
2bf
  8
Layer_0
  10
602.28235
  20
1856.4087
  0
VERTEX
  5
2c0
  8
Layer_0
  10
602.28235
  20
1860.9426
  0
VERTEX
  5
2c1
  8
Layer_0
  10
602.28235
  20
1865.4767
  0
VERTEX
  5
2c2
  8
Layer_0
  10
604.80524
  20
1865.4767
  0
VERTEX
  5
2c3
  8
Layer_0
  10
607.32813
  20
1865.4767
  0
SEQEND
  0
POLYLINE
  5
2c5
  8
Layer_0
  62
7
  70
1
  66
1
  10
0
  20
0
  30
0
  0
VERTEX
  5
2c5
  8
Layer_0
  10
614.89667
  20
1860.9426
  0
VERTEX
  5
2c6
  8
Layer_0
  10
614.89667
  20
1856.4087
  0
VERTEX
  5
2c7
  8
Layer_0
  10
612.37378
  20
1856.4087
  0
VERTEX
  5
2c8
  8
Layer_0
  10
609.85095
  20
1856.4087
  0
VERTEX
  5
2c9
  8
Layer_0
  10
609.85095
  20
1860.9426
  0
VERTEX
  5
2ca
  8
Layer_0
  10
609.85095
  20
1865.4767
  0
VERTEX
  5
2cb
  8
Layer_0
  10
612.37378
  20
1865.4767
  0
VERTEX
  5
2cc
  8
Layer_0
  10
614.89667
  20
1865.4767
  0
SEQEND
  0
POLYLINE
  5
2ce
  8
Layer_0
  62
7
  70
1
  66
1
  10
0
  20
0
  30
0
  0
VERTEX
  5
2ce
  8
Layer_0
  10
627.33704
  20
1848.1852
  42
-0.18236069
  0
VERTEX
  5
2cf
  8
Layer_0
  10
626.73572
  20
1846.5729
  42
-0.23645257
  0
VERTEX
  5
2d0
  8
Layer_0
  10
625.31122
  20
1845.9857
  42
-0.1944954
  0
VERTEX
  5
2d1
  8
Layer_0
  10
623.76208
  20
1846.7703
  42
-0.14813129
  0
VERTEX
  5
2d2
  8
Layer_0
  10
622.96228
  20
1848.5341
  42
-0.035111867
  0
VERTEX
  5
2d3
  8
Layer_0
  10
622.87885
  20
1849.8295
  42
-0.19147824
  0
VERTEX
  5
2d4
  8
Layer_0
  10
623.13397
  20
1850.4685
  42
-0.20309592
  0
VERTEX
  5
2d5
  8
Layer_0
  10
623.74475
  20
1850.7355
  42
-0.038398553
  0
VERTEX
  5
2d6
  8
Layer_0
  10
624.98297
  20
1850.6482
  42
-0.061273452
  0
VERTEX
  5
2d7
  8
Layer_0
  10
626.0127
  20
1850.3633
  42
-0.10439932
  0
VERTEX
  5
2d8
  8
Layer_0
  10
626.74847
  20
1849.858
  42
-0.11111204
  0
VERTEX
  5
2d9
  8
Layer_0
  10
627.18518
  20
1849.1284
  42
-0.080160845
  0
SEQEND
  0
POLYLINE
  5
2db
  8
Layer_0
  62
7
  70
1
  66
1
  10
0
  20
0
  30
0
  0
VERTEX
  5
2db
  8
Layer_0
  10
755.21143
  20
2081.8384
  42
0.01298975
  0
VERTEX
  5
2dc
  8
Layer_0
  10
751.23175
  20
2081.3892
  42
0.006361637
  0
VERTEX
  5
2dd
  8
Layer_0
  10
746.18713
  20
2080.6208
  42
0.0063619871
  0
VERTEX
  5
2de
  8
Layer_0
  10
741.14471
  20
2079.7212
  42
0.012504554
  0
VERTEX
  5
2df
  8
Layer_0
  10
737.16394
  20
2078.8547
  42
0.03774955
  0
VERTEX
  5
2e0
  8
Layer_0
  10
722.55518
  20
2074.0955
  42
0.060211042
  0
VERTEX
  5
2e1
  8
Layer_0
  10
711.09064
  20
2067.6665
  42
0.073959197
  0
VERTEX
  5
2e2
  8
Layer_0
  10
703.34839
  20
2060.0161
  42
0.12415716
  0
VERTEX
  5
2e3
  8
Layer_0
  10
699.82703
  20
2051.5854
  0
VERTEX
  5
2e4
  8
Layer_0
  10
699.50232
  20
2049.4453
  0
VERTEX
  5
2e5
  8
Layer_0
  10
710.87354
  20
2049.4453
  0
VERTEX
  5
2e6
  8
Layer_0
  10
722.24475
  20
2049.4453
  0
VERTEX
  5
2e7
  8
Layer_0
  10
722.24475
  20
2026.535
  42
0.0014145148
  0
VERTEX
  5
2e8
  8
Layer_0
  10
722.27313
  20
2016.5657
  42
0.0038294641
  0
VERTEX
  5
2e9
  8
Layer_0
  10
722.36774
  20
2009.4781
  42
0.00087809549
  0
VERTEX
  5
2ea
  8
Layer_0
  10
722.49524
  20
2003.8601
  42
0.40707259
  0
VERTEX
  5
2eb
  8
Layer_0
  10
722.72607
  20
2003.6246
  42
-0.36475385
  0
VERTEX
  5
2ec
  8
Layer_0
  10
722.92694
  20
2003.4492
  42
-0.015033675
  0
VERTEX
  5
2ed
  8
Layer_0
  10
723.07281
  20
2002.4288
  42
-0.018604654
  0
VERTEX
  5
2ee
  8
Layer_0
  10
723.17493
  20
2001.0662
  42
-0.0094008675
  0
VERTEX
  5
2ef
  8
Layer_0
  10
723.20728
  20
1999.3447
  42
-0.0094072613
  0
VERTEX
  5
2f0
  8
Layer_0
  10
723.17493
  20
1997.6232
  42
-0.018595665
  0
VERTEX
  5
2f1
  8
Layer_0
  10
723.07281
  20
1996.2606
  42
-0.015044208
  0
VERTEX
  5
2f2
  8
Layer_0
  10
722.92694
  20
1995.2401
  42
-0.36466999
  0
VERTEX
  5
2f3
  8
Layer_0
  10
722.72607
  20
1995.0647
  42
0.39034768
  0
VERTEX
  5
2f4
  8
Layer_0
  10
722.50989
  20
1994.8573
  42
0.0056530027
  0
VERTEX
  5
2f5
  8
Layer_0
  10
722.37262
  20
1992.9248
  42
0.010483754
  0
VERTEX
  5
2f6
  8
Layer_0
  10
722.27484
  20
1990.3998
  42
0.0044437118
  0
VERTEX
  5
2f7
  8
Layer_0
  10
722.24475
  20
1987.0083
  0
VERTEX
  5
2f8
  8
Layer_0
  10
722.24475
  20
1978.9519
  0
VERTEX
  5
2f9
  8
Layer_0
  10
710.93506
  20
1978.9519
  0
VERTEX
  5
2fa
  8
Layer_0
  10
699.62537
  20
1978.9519
  0
VERTEX
  5
2fb
  8
Layer_0
  10
699.62537
  20
1962.0839
  0
VERTEX
  5
2fc
  8
Layer_0
  10
699.62537
  20
1945.2158
  0
VERTEX
  5
2fd
  8
Layer_0
  10
710.93506
  20
1945.2158
  0
VERTEX
  5
2fe
  8
Layer_0
  10
722.24475
  20
1945.2158
  0
VERTEX
  5
2ff
  8
Layer_0
  10
722.24475
  20
1937.1594
  42
0.0044436817
  0
VERTEX
  5
300
  8
Layer_0
  10
722.27484
  20
1933.7679
  42
0.010492423
  0
VERTEX
  5
301
  8
Layer_0
  10
722.37262
  20
1931.243
  42
0.0056458171
  0
VERTEX
  5
302
  8
Layer_0
  10
722.50989
  20
1929.3104
  42
0.39036734
  0
VERTEX
  5
303
  8
Layer_0
  10
722.72607
  20
1929.103
  42
-0.36470975
  0
VERTEX
  5
304
  8
Layer_0
  10
722.92694
  20
1928.9276
  42
-0.015032718
  0
VERTEX
  5
305
  8
Layer_0
  10
723.07281
  20
1927.9071
  42
-0.018604812
  0
VERTEX
  5
306
  8
Layer_0
  10
723.17493
  20
1926.5446
  42
-0.0094008675
  0
VERTEX
  5
307
  8
Layer_0
  10
723.20728
  20
1924.823
  42
-0.0094072613
  0
VERTEX
  5
308
  8
Layer_0
  10
723.17493
  20
1923.1016
  42
-0.018596758
  0
VERTEX
  5
309
  8
Layer_0
  10
723.07281
  20
1921.739
  42
-0.015044208
  0
VERTEX
  5
30a
  8
Layer_0
  10
722.92694
  20
1920.7185
  42
-0.36467
  0
VERTEX
  5
30b
  8
Layer_0
  10
722.72607
  20
1920.5431
  42
0.40710608
  0
VERTEX
  5
30c
  8
Layer_0
  10
722.49524
  20
1920.3077
  42
0.00087969904
  0
VERTEX
  5
30d
  8
Layer_0
  10
722.36774
  20
1914.6896
  42
0.0038233069
  0
VERTEX
  5
30e
  8
Layer_0
  10
722.27313
  20
1907.6022
  42
0.0014144754
  0
VERTEX
  5
30f
  8
Layer_0
  10
722.24475
  20
1897.6327
  0
VERTEX
  5
310
  8
Layer_0
  10
722.24475
  20
1874.7224
  0
VERTEX
  5
311
  8
Layer_0
  10
710.89276
  20
1874.7224
  0
VERTEX
  5
312
  8
Layer_0
  10
699.54077
  20
1874.7224
  0
VERTEX
  5
313
  8
Layer_0
  10
699.85486
  20
1872.5824
  42
0.13362872
  0
VERTEX
  5
314
  8
Layer_0
  10
703.68726
  20
1863.7424
  42
0.073149319
  0
VERTEX
  5
315
  8
Layer_0
  10
712.35657
  20
1855.6887
  42
0.060068448
  0
VERTEX
  5
316
  8
Layer_0
  10
725.02264
  20
1849.0602
  42
0.039876671
  0
VERTEX
  5
317
  8
Layer_0
  10
740.76294
  20
1844.4988
  42
0.013690178
  0
VERTEX
  5
318
  8
Layer_0
  10
748.00037
  20
1843.2203
  42
0.017095374
  0
VERTEX
  5
319
  8
Layer_0
  10
754.77777
  20
1842.4493
  42
0.016028222
  0
VERTEX
  5
31a
  8
Layer_0
  10
761.93896
  20
1842.1123
  42
0.0098908457
  0
VERTEX
  5
31b
  8
Layer_0
  10
770.37122
  20
1842.1527
  42
0.0089565962
  0
VERTEX
  5
31c
  8
Layer_0
  10
778.4422
  20
1842.4958
  42
0.015420839
  0
VERTEX
  5
31d
  8
Layer_0
  10
785.14026
  20
1843.1086
  42
0.016932255
  0
VERTEX
  5
31e
  8
Layer_0
  10
791.32751
  20
1844.0815
  42
0.014268215
  0
VERTEX
  5
31f
  8
Layer_0
  10
797.80328
  20
1845.5184
  42
0.038546625
  0
VERTEX
  5
320
  8
Layer_0
  10
811.95178
  20
1850.2712
  42
0.059744126
  0
VERTEX
  5
321
  8
Layer_0
  10
823.13745
  20
1856.6887
  42
0.072662543
  0
VERTEX
  5
322
  8
Layer_0
  10
830.7301
  20
1864.2858
  42
0.12321427
  0
VERTEX
  5
323
  8
Layer_0
  10
834.17761
  20
1872.5824
  0
VERTEX
  5
324
  8
Layer_0
  10
834.50238
  20
1874.7224
  0
VERTEX
  5
325
  8
Layer_0
  10
823.13116
  20
1874.7224
  0
VERTEX
  5
326
  8
Layer_0
  10
811.75995
  20
1874.7224
  0
VERTEX
  5
327
  8
Layer_0
  10
811.75995
  20
1897.6327
  42
0.0014154665
  0
VERTEX
  5
328
  8
Layer_0
  10
811.73157
  20
1907.6022
  42
0.0038248244
  0
VERTEX
  5
329
  8
Layer_0
  10
811.63696
  20
1914.6896
  42
0.00087990075
  0
VERTEX
  5
32a
  8
Layer_0
  10
811.50952
  20
1920.3077
  42
0.40707343
  0
VERTEX
  5
32b
  8
Layer_0
  10
811.27869
  20
1920.5431
  42
-0.38218941
  0
VERTEX
  5
32c
  8
Layer_0
  10
811.06787
  20
1920.7396
  42
-0.0084635825
  0
VERTEX
  5
32d
  8
Layer_0
  10
810.92737
  20
1922.2426
  42
-0.013190461
  0
VERTEX
  5
32e
  8
Layer_0
  10
810.82825
  20
1924.2255
  42
-0.0059120875
  0
VERTEX
  5
32f
  8
Layer_0
  10
810.79736
  20
1926.8372
  42
-0.0059034463
  0
VERTEX
  5
330
  8
Layer_0
  10
810.82825
  20
1929.4489
  42
-0.013201969
  0
VERTEX
  5
331
  8
Layer_0
  10
810.92737
  20
1931.4319
  42
-0.0084346568
  0
VERTEX
  5
332
  8
Layer_0
  10
811.06787
  20
1932.9347
  42
-0.38228622
  0
VERTEX
  5
333
  8
Layer_0
  10
811.27869
  20
1933.1312
  42
0.38073726
  0
VERTEX
  5
334
  8
Layer_0
  10
811.48853
  20
1933.3257
  42
0.0090207872
  0
VERTEX
  5
335
  8
Layer_0
  10
811.62964
  20
1934.7677
  42
0.013669144
  0
VERTEX
  5
336
  8
Layer_0
  10
811.729
  20
1936.6731
  42
0.0061930041
  0
VERTEX
  5
337
  8
Layer_0
  10
811.75995
  20
1939.1735
  0
VERTEX
  5
338
  8
Layer_0
  10
811.75995
  20
1945.2158
  0
VERTEX
  5
339
  8
Layer_0
  10
823.06964
  20
1945.2158
  0
VERTEX
  5
33a
  8
Layer_0
  10
834.37939
  20
1945.2158
  0
VERTEX
  5
33b
  8
Layer_0
  10
834.37939
  20
1962.0839
  0
VERTEX
  5
33c
  8
Layer_0
  10
834.37939
  20
1978.9519
  0
VERTEX
  5
33d
  8
Layer_0
  10
823.06964
  20
1978.9519
  0
VERTEX
  5
33e
  8
Layer_0
  10
811.75995
  20
1978.9519
  0
VERTEX
  5
33f
  8
Layer_0
  10
811.75995
  20
1987.0083
  42
0.0044437717
  0
VERTEX
  5
340
  8
Layer_0
  10
811.72986
  20
1990.3998
  42
0.01048784
  0
VERTEX
  5
341
  8
Layer_0
  10
811.63208
  20
1992.9248
  42
0.0056124508
  0
VERTEX
  5
342
  8
Layer_0
  10
811.49475
  20
1994.8573
  42
0.39023363
  0
VERTEX
  5
343
  8
Layer_0
  10
811.27869
  20
1995.0647
  42
-0.38073726
  0
VERTEX
  5
344
  8
Layer_0
  10
811.06885
  20
1995.2593
  42
-0.0090211029
  0
VERTEX
  5
345
  8
Layer_0
  10
810.92773
  20
1996.7012
  42
-0.013681164
  0
VERTEX
  5
346
  8
Layer_0
  10
810.82837
  20
1998.6067
  42
-0.006184312
  0
VERTEX
  5
347
  8
Layer_0
  10
810.79736
  20
2001.1071
  42
-0.0061841981
  0
VERTEX
  5
348
  8
Layer_0
  10
810.82837
  20
2003.6074
  42
-0.013680834
  0
VERTEX
  5
349
  8
Layer_0
  10
810.92773
  20
2005.5128
  42
-0.0090362074
  0
VERTEX
  5
34a
  8
Layer_0
  10
811.06885
  20
2006.9548
  42
-0.38073726
  0
VERTEX
  5
34b
  8
Layer_0
  10
811.27869
  20
2007.1493
  42
0.40644667
  0
VERTEX
  5
34c
  8
Layer_0
  10
811.50873
  20
2007.3834
  42
0.0010390219
  0
VERTEX
  5
34d
  8
Layer_0
  10
811.63672
  20
2012.5623
  42
0.0041373337
  0
VERTEX
  5
34e
  8
Layer_0
  10
811.73151
  20
2019.1085
  42
0.00153358
  0
VERTEX
  5
34f
  8
Layer_0
  10
811.75995
  20
2028.2974
  0
VERTEX
  5
350
  8
Layer_0
  10
811.75995
  20
2049.4453
  0
VERTEX
  5
351
  8
Layer_0
  10
823.11194
  20
2049.4453
  0
VERTEX
  5
352
  8
Layer_0
  10
834.46399
  20
2049.4453
  0
VERTEX
  5
353
  8
Layer_0
  10
834.1499
  20
2051.5854
  42
0.051901822
  0
VERTEX
  5
354
  8
Layer_0
  10
833.43628
  20
2054.3892
  42
0.032841236
  0
VERTEX
  5
355
  8
Layer_0
  10
832.06531
  20
2057.4702
  42
0.032062593
  0
VERTEX
  5
356
  8
Layer_0
  10
830.23193
  20
2060.4714
  42
0.037550828
  0
VERTEX
  5
357
  8
Layer_0
  10
828.11938
  20
2063.0442
  42
0.078977425
  0
VERTEX
  5
358
  8
Layer_0
  10
817.52228
  20
2071.1243
  42
0.048254082
  0
VERTEX
  5
359
  8
Layer_0
  10
803.0285
  20
2077.1941
  42
0.043203117
  0
VERTEX
  5
35a
  8
Layer_0
  10
785.69226
  20
2080.9556
  42
0.034060845
  0
VERTEX
  5
35b
  8
Layer_0
  10
766.52405
  20
2082.0898
  42
0.0014717333
  0
VERTEX
  5
35c
  8
Layer_0
  10
762.78839
  20
2082.0452
  42
0.0018465972
  0
VERTEX
  5
35d
  8
Layer_0
  10
759.32855
  20
2081.981
  42
0.0014267306
  0
VERTEX
  5
35e
  8
Layer_0
  10
756.42633
  20
2081.908
  42
0.014583999
  0
SEQEND
  0
POLYLINE
  5
360
  8
Layer_0
  62
7
  70
1
  66
1
  10
0
  20
0
  30
0
  0
VERTEX
  5
360
  8
Layer_0
  10
771.72558
  20
2075.0017
  0
VERTEX
  5
361
  8
Layer_0
  10
772.19268
  20
2074.6701
  0
VERTEX
  5
362
  8
Layer_0
  10
772.6385
  20
2074.3027
  0
VERTEX
  5
363
  8
Layer_0
  10
773.06171
  20
2073.901
  0
VERTEX
  5
364
  8
Layer_0
  10
773.46098
  20
2073.4667
  0
VERTEX
  5
365
  8
Layer_0
  10
773.835
  20
2073.0012
  0
VERTEX
  5
366
  8
Layer_0
  10
774.18243
  20
2072.506
  0
VERTEX
  5
367
  8
Layer_0
  10
774.50197
  20
2071.9828
  0
VERTEX
  5
368
  8
Layer_0
  10
774.79227
  20
2071.4331
  42
-0.098432972
  0
VERTEX
  5
369
  8
Layer_0
  10
776.14557
  20
2066.2402
  42
-0.096621707
  0
VERTEX
  5
36a
  8
Layer_0
  10
775.45441
  20
2060.8696
  0
VERTEX
  5
36b
  8
Layer_0
  10
775.236
  20
2060.2758
  0
VERTEX
  5
36c
  8
Layer_0
  10
774.98532
  20
2059.703
  0
VERTEX
  5
36d
  8
Layer_0
  10
774.70348
  20
2059.1531
  0
VERTEX
  5
36e
  8
Layer_0
  10
774.39162
  20
2058.6279
  0
VERTEX
  5
36f
  8
Layer_0
  10
774.05086
  20
2058.1292
  0
VERTEX
  5
370
  8
Layer_0
  10
773.68234
  20
2057.6586
  0
VERTEX
  5
371
  8
Layer_0
  10
773.28717
  20
2057.218
  0
VERTEX
  5
372
  8
Layer_0
  10
772.8665
  20
2056.8092
  0
VERTEX
  5
373
  8
Layer_0
  10
772.32213
  20
2056.3492
  0
VERTEX
  5
374
  8
Layer_0
  10
771.75534
  20
2055.935
  0
VERTEX
  5
375
  8
Layer_0
  10
771.16817
  20
2055.5675
  0
VERTEX
  5
376
  8
Layer_0
  10
770.56265
  20
2055.2476
  0
VERTEX
  5
377
  8
Layer_0
  10
769.94081
  20
2054.9764
  0
VERTEX
  5
378
  8
Layer_0
  10
769.30468
  20
2054.7548
  0
VERTEX
  5
379
  8
Layer_0
  10
768.65629
  20
2054.5838
  0
VERTEX
  5
37a
  8
Layer_0
  10
767.99768
  20
2054.4644
  0
VERTEX
  5
37b
  8
Layer_0
  10
767.34901
  20
2054.4013
  0
VERTEX
  5
37c
  8
Layer_0
  10
766.70072
  20
2054.3937
  0
VERTEX
  5
37d
  8
Layer_0
  10
766.05523
  20
2054.4413
  0
VERTEX
  5
37e
  8
Layer_0
  10
765.41497
  20
2054.5435
  0
VERTEX
  5
37f
  8
Layer_0
  10
764.78237
  20
2054.6998
  0
VERTEX
  5
380
  8
Layer_0
  10
764.15987
  20
2054.9098
  0
VERTEX
  5
381
  8
Layer_0
  10
763.54989
  20
2055.173
  0
VERTEX
  5
382
  8
Layer_0
  10
762.95486
  20
2055.4888
  0
VERTEX
  5
383
  8
Layer_0
  10
762.38365
  20
2055.8529
  0
VERTEX
  5
384
  8
Layer_0
  10
761.83792
  20
2056.2637
  0
VERTEX
  5
385
  8
Layer_0
  10
761.31952
  20
2056.7191
  0
VERTEX
  5
386
  8
Layer_0
  10
760.83028
  20
2057.2173
  0
VERTEX
  5
387
  8
Layer_0
  10
760.37206
  20
2057.7561
  0
VERTEX
  5
388
  8
Layer_0
  10
759.94669
  20
2058.3336
  0
VERTEX
  5
389
  8
Layer_0
  10
759.55601
  20
2058.9477
  0
VERTEX
  5
38a
  8
Layer_0
  10
759.20186
  20
2059.5965
  0
VERTEX
  5
38b
  8
Layer_0
  10
758.88064
  20
2060.2861
  0
VERTEX
  5
38c
  8
Layer_0
  10
758.60027
  20
2060.9978
  0
VERTEX
  5
38d
  8
Layer_0
  10
758.36136
  20
2061.7289
  0
VERTEX
  5
38e
  8
Layer_0
  10
758.16453
  20
2062.477
  0
VERTEX
  5
38f
  8
Layer_0
  10
758.01038
  20
2063.2392
  0
VERTEX
  5
390
  8
Layer_0
  10
757.89951
  20
2064.0131
  0
VERTEX
  5
391
  8
Layer_0
  10
757.83254
  20
2064.796
  0
VERTEX
  5
392
  8
Layer_0
  10
757.81007
  20
2065.5853
  42
-0.073064164
  0
VERTEX
  5
393
  8
Layer_0
  10
758.34338
  20
2069.248
  42
-0.076192664
  0
VERTEX
  5
394
  8
Layer_0
  10
759.88177
  20
2072.5134
  42
-0.084392937
  0
VERTEX
  5
395
  8
Layer_0
  10
762.24805
  20
2075.0068
  42
-0.093708507
  0
VERTEX
  5
396
  8
Layer_0
  10
765.17126
  20
2076.439
  42
-0.060240216
  0
VERTEX
  5
397
  8
Layer_0
  10
766.75665
  20
2076.6697
  42
-0.059935428
  0
VERTEX
  5
398
  8
Layer_0
  10
768.35278
  20
2076.5151
  42
-0.053947466
  0
VERTEX
  5
399
  8
Layer_0
  10
769.9967
  20
2075.9617
  42
-0.037344745
  0
VERTEX
  5
39a
  8
Layer_0
  10
771.72559
  20
2075.0017
  0
SEQEND
  0
POLYLINE
  5
39c
  8
Layer_0
  62
7
  70
1
  66
1
  10
0
  20
0
  30
0
  0
VERTEX
  5
39c
  8
Layer_0
  10
739.76196
  20
2058.6011
  0
VERTEX
  5
39d
  8
Layer_0
  10
739.76196
  20
2054.0671
  0
VERTEX
  5
39e
  8
Layer_0
  10
737.49133
  20
2054.0671
  0
VERTEX
  5
39f
  8
Layer_0
  10
735.22083
  20
2054.0671
  0
VERTEX
  5
3a0
  8
Layer_0
  10
735.22083
  20
2058.6011
  0
VERTEX
  5
3a1
  8
Layer_0
  10
735.22083
  20
2063.1353
  0
VERTEX
  5
3a2
  8
Layer_0
  10
737.49133
  20
2063.1353
  0
VERTEX
  5
3a3
  8
Layer_0
  10
739.76196
  20
2063.1353
  0
SEQEND
  0
POLYLINE
  5
3a5
  8
Layer_0
  62
7
  70
1
  66
1
  10
0
  20
0
  30
0
  0
VERTEX
  5
3a5
  8
Layer_0
  10
747.33051
  20
2058.6011
  0
VERTEX
  5
3a6
  8
Layer_0
  10
747.33051
  20
2054.0671
  0
VERTEX
  5
3a7
  8
Layer_0
  10
744.80762
  20
2054.0671
  0
VERTEX
  5
3a8
  8
Layer_0
  10
742.28479
  20
2054.0671
  0
VERTEX
  5
3a9
  8
Layer_0
  10
742.28479
  20
2058.6011
  0
VERTEX
  5
3aa
  8
Layer_0
  10
742.28479
  20
2063.1353
  0
VERTEX
  5
3ab
  8
Layer_0
  10
744.80762
  20
2063.1353
  0
VERTEX
  5
3ac
  8
Layer_0
  10
747.33051
  20
2063.1353
  0
SEQEND
  0
POLYLINE
  5
3ae
  8
Layer_0
  62
7
  70
1
  66
1
  10
0
  20
0
  30
0
  0
VERTEX
  5
3ae
  8
Layer_0
  10
754.89905
  20
2058.6011
  0
VERTEX
  5
3af
  8
Layer_0
  10
754.89905
  20
2054.0671
  0
VERTEX
  5
3b0
  8
Layer_0
  10
752.37622
  20
2054.0671
  0
VERTEX
  5
3b1
  8
Layer_0
  10
749.85339
  20
2054.0671
  0
VERTEX
  5
3b2
  8
Layer_0
  10
749.85339
  20
2058.6011
  0
VERTEX
  5
3b3
  8
Layer_0
  10
749.85339
  20
2063.1353
  0
VERTEX
  5
3b4
  8
Layer_0
  10
752.37622
  20
2063.1353
  0
VERTEX
  5
3b5
  8
Layer_0
  10
754.89905
  20
2063.1353
  0
SEQEND
  0
POLYLINE
  5
3b7
  8
Layer_0
  62
7
  70
1
  66
1
  10
0
  20
0
  30
0
  0
VERTEX
  5
3b7
  8
Layer_0
  10
785.67798
  20
2058.6011
  0
VERTEX
  5
3b8
  8
Layer_0
  10
785.67798
  20
2054.0671
  0
VERTEX
  5
3b9
  8
Layer_0
  10
783.40735
  20
2054.0671
  0
VERTEX
  5
3ba
  8
Layer_0
  10
781.13684
  20
2054.0671
  0
VERTEX
  5
3bb
  8
Layer_0
  10
781.13684
  20
2058.6011
  0
VERTEX
  5
3bc
  8
Layer_0
  10
781.13684
  20
2063.1353
  0
VERTEX
  5
3bd
  8
Layer_0
  10
783.40735
  20
2063.1353
  0
VERTEX
  5
3be
  8
Layer_0
  10
785.67798
  20
2063.1353
  0
SEQEND
  0
POLYLINE
  5
3c0
  8
Layer_0
  62
7
  70
1
  66
1
  10
0
  20
0
  30
0
  0
VERTEX
  5
3c0
  8
Layer_0
  10
793.24652
  20
2058.6011
  0
VERTEX
  5
3c1
  8
Layer_0
  10
793.24652
  20
2054.0671
  0
VERTEX
  5
3c2
  8
Layer_0
  10
790.97595
  20
2054.0671
  0
VERTEX
  5
3c3
  8
Layer_0
  10
788.70538
  20
2054.0671
  0
VERTEX
  5
3c4
  8
Layer_0
  10
788.70538
  20
2058.6011
  0
VERTEX
  5
3c5
  8
Layer_0
  10
788.70538
  20
2063.1353
  0
VERTEX
  5
3c6
  8
Layer_0
  10
790.97595
  20
2063.1353
  0
VERTEX
  5
3c7
  8
Layer_0
  10
793.24652
  20
2063.1353
  0
SEQEND
  0
POLYLINE
  5
3c9
  8
Layer_0
  62
7
  70
1
  66
1
  10
0
  20
0
  30
0
  0
VERTEX
  5
3c9
  8
Layer_0
  10
800.81506
  20
2058.6011
  0
VERTEX
  5
3ca
  8
Layer_0
  10
800.81506
  20
2054.0671
  0
VERTEX
  5
3cb
  8
Layer_0
  10
798.54456
  20
2054.0671
  0
VERTEX
  5
3cc
  8
Layer_0
  10
796.27393
  20
2054.0671
  0
VERTEX
  5
3cd
  8
Layer_0
  10
796.27393
  20
2058.6011
  0
VERTEX
  5
3ce
  8
Layer_0
  10
796.27393
  20
2063.1353
  0
VERTEX
  5
3cf
  8
Layer_0
  10
798.54456
  20
2063.1353
  0
VERTEX
  5
3d0
  8
Layer_0
  10
800.81506
  20
2063.1353
  0
SEQEND
  0
POLYLINE
  5
3d2
  8
Layer_0
  62
7
  70
1
  66
1
  10
0
  20
0
  30
0
  0
VERTEX
  5
3d2
  8
Layer_0
  10
727.81921
  20
2057.3408
  42
-0.032580585
  0
VERTEX
  5
3d3
  8
Layer_0
  10
727.74725
  20
2056.2388
  42
-0.14645804
  0
VERTEX
  5
3d4
  8
Layer_0
  10
727.48254
  20
2055.6553
  42
-0.16710897
  0
VERTEX
  5
3d5
  8
Layer_0
  10
726.96185
  20
2055.3574
  42
-0.049115148
  0
VERTEX
  5
3d6
  8
Layer_0
  10
726.02771
  20
2055.2654
  42
-0.10125715
  0
VERTEX
  5
3d7
  8
Layer_0
  10
724.63574
  20
2055.5483
  42
-0.11928236
  0
VERTEX
  5
3d8
  8
Layer_0
  10
723.56592
  20
2056.3398
  42
-0.13501764
  0
VERTEX
  5
3d9
  8
Layer_0
  10
723.05316
  20
2057.4644
  42
-0.13818916
  0
VERTEX
  5
3da
  8
Layer_0
  10
723.20007
  20
2058.6765
  42
-0.1029781
  0
VERTEX
  5
3db
  8
Layer_0
  10
723.54785
  20
2059.1824
  42
-0.10216253
  0
VERTEX
  5
3dc
  8
Layer_0
  10
724.07507
  20
2059.5127
  42
-0.077879737
  0
VERTEX
  5
3dd
  8
Layer_0
  10
724.80481
  20
2059.6626
  42
-0.038477125
  0
VERTEX
  5
3de
  8
Layer_0
  10
725.75446
  20
2059.6353
  42
-0.038950374
  0
VERTEX
  5
3df
  8
Layer_0
  10
726.84961
  20
2059.4321
  42
-0.14520701
  0
VERTEX
  5
3e0
  8
Layer_0
  10
727.44006
  20
2059.0752
  42
-0.14687514
  0
VERTEX
  5
3e1
  8
Layer_0
  10
727.7356
  20
2058.457
  42
-0.037385667
  0
SEQEND
  0
POLYLINE
  5
3e3
  8
Layer_0
  62
7
  70
1
  66
1
  10
0
  20
0
  30
0
  0
VERTEX
  5
3e3
  8
Layer_0
  10
764.89368
  20
2050.9453
  42
-0.036547647
  0
VERTEX
  5
3e4
  8
Layer_0
  10
764.91199
  20
2050.1541
  42
-0.09361998
  0
VERTEX
  5
3e5
  8
Layer_0
  10
764.78058
  20
2049.6006
  42
-0.12185299
  0
VERTEX
  5
3e6
  8
Layer_0
  10
764.48145
  20
2049.2114
  42
-0.07495761
  0
VERTEX
  5
3e7
  8
Layer_0
  10
763.98645
  20
2048.9307
  42
-0.13564583
  0
VERTEX
  5
3e8
  8
Layer_0
  10
763.09216
  20
2048.8447
  42
-0.12929348
  0
VERTEX
  5
3e9
  8
Layer_0
  10
762.25848
  20
2049.2383
  42
-0.11395049
  0
VERTEX
  5
3ea
  8
Layer_0
  10
761.67065
  20
2050.0203
  42
-0.10707947
  0
VERTEX
  5
3eb
  8
Layer_0
  10
761.4585
  20
2051.0178
  42
-0.061173381
  0
VERTEX
  5
3ec
  8
Layer_0
  10
761.57092
  20
2051.9392
  42
-0.15547275
  0
VERTEX
  5
3ed
  8
Layer_0
  10
761.90698
  20
2052.5037
  42
-0.15851395
  0
VERTEX
  5
3ee
  8
Layer_0
  10
762.50867
  20
2052.7625
  42
-0.05493138
  0
VERTEX
  5
3ef
  8
Layer_0
  10
763.45789
  20
2052.7346
  42
-0.064931487
  0
VERTEX
  5
3f0
  8
Layer_0
  10
764.07996
  20
2052.5627
  42
-0.12478226
  0
VERTEX
  5
3f1
  8
Layer_0
  10
764.49341
  20
2052.2441
  42
-0.10328705
  0
VERTEX
  5
3f2
  8
Layer_0
  10
764.75134
  20
2051.7285
  42
-0.042104282
  0
SEQEND
  0
POLYLINE
  5
3f4
  8
Layer_0
  62
7
  70
1
  66
1
  10
0
  20
0
  30
0
  0
VERTEX
  5
3f4
  8
Layer_0
  10
772.45728
  20
2051.2939
  42
-0.1060973
  0
VERTEX
  5
3f5
  8
Layer_0
  10
772.35712
  20
2050.1958
  42
-0.12206132
  0
VERTEX
  5
3f6
  8
Layer_0
  10
771.82855
  20
2049.3083
  42
-0.14338992
  0
VERTEX
  5
3f7
  8
Layer_0
  10
770.99591
  20
2048.8462
  42
-0.14453683
  0
VERTEX
  5
3f8
  8
Layer_0
  10
770.06042
  20
2048.9194
  42
-0.17145503
  0
VERTEX
  5
3f9
  8
Layer_0
  10
769.43359
  20
2049.4717
  42
-0.085570643
  0
VERTEX
  5
3fa
  8
Layer_0
  10
769.05371
  20
2050.5005
  42
-0.0805248
  0
VERTEX
  5
3fb
  8
Layer_0
  10
769.02429
  20
2051.6348
  42
-0.14118279
  0
VERTEX
  5
3fc
  8
Layer_0
  10
769.3866
  20
2052.4829
  42
-0.20716615
  0
VERTEX
  5
3fd
  8
Layer_0
  10
770.12006
  20
2052.8721
  42
-0.10729713
  0
VERTEX
  5
3fe
  8
Layer_0
  10
771.15173
  20
2052.708
  42
-0.099226595
  0
VERTEX
  5
3ff
  8
Layer_0
  10
772.06421
  20
2052.1191
  42
-0.17345443
  0
SEQEND
  0
POLYLINE
  5
401
  8
Layer_0
  62
7
  70
1
  66
1
  10
0
  20
0
  30
0
  0
VERTEX
  5
401
  8
Layer_0
  10
811.59698
  20
2058.5103
  42
-0.11651961
  0
VERTEX
  5
402
  8
Layer_0
  10
811.66663
  20
2057.3372
  42
-0.11535883
  0
VERTEX
  5
403
  8
Layer_0
  10
811.21448
  20
2056.2554
  42
-0.12177968
  0
VERTEX
  5
404
  8
Layer_0
  10
810.33557
  20
2055.5071
  42
-0.1225357
  0
VERTEX
  5
405
  8
Layer_0
  10
809.22791
  20
2055.2654
  42
-0.14277153
  0
VERTEX
  5
406
  8
Layer_0
  10
808.31512
  20
2055.5688
  42
-0.14890173
  0
VERTEX
  5
407
  8
Layer_0
  10
807.71875
  20
2056.3303
  42
-0.11354591
  0
VERTEX
  5
408
  8
Layer_0
  10
807.54712
  20
2057.4561
  42
-0.07116154
  0
VERTEX
  5
409
  8
Layer_0
  10
807.83026
  20
2058.7642
  42
-0.2164528
  0
VERTEX
  5
40a
  8
Layer_0
  10
808.50812
  20
2059.4775
  42
-0.10776201
  0
VERTEX
  5
40b
  8
Layer_0
  10
809.74207
  20
2059.6628
  42
-0.10517254
  0
VERTEX
  5
40c
  8
Layer_0
  10
810.96228
  20
2059.313
  42
-0.20054924
  0
SEQEND
  0
POLYLINE
  5
40e
  8
Layer_0
  62
7
  70
1
  66
1
  10
0
  20
0
  30
0
  0
VERTEX
  5
40e
  8
Layer_0
  10
770.27057
  20
2014.0001
  0
VERTEX
  5
40f
  8
Layer_0
  10
770.27057
  20
2006.7456
  0
VERTEX
  5
410
  8
Layer_0
  10
768
  20
2006.7456
  0
VERTEX
  5
411
  8
Layer_0
  10
765.72943
  20
2006.7456
  0
VERTEX
  5
412
  8
Layer_0
  10
765.72943
  20
2014.0001
  0
VERTEX
  5
413
  8
Layer_0
  10
765.72943
  20
2021.2545
  0
VERTEX
  5
414
  8
Layer_0
  10
768
  20
2021.2545
  0
VERTEX
  5
415
  8
Layer_0
  10
770.27057
  20
2021.2545
  0
SEQEND
  0
POLYLINE
  5
417
  8
Layer_0
  62
7
  70
1
  66
1
  10
0
  20
0
  30
0
  0
VERTEX
  5
417
  8
Layer_0
  10
768.65051
  20
1994.4879
  42
-0.1370164
  0
VERTEX
  5
418
  8
Layer_0
  10
769.00635
  20
1993.4988
  42
-0.14533072
  0
VERTEX
  5
419
  8
Layer_0
  10
768.79785
  20
1992.4874
  42
-0.14493231
  0
VERTEX
  5
41a
  8
Layer_0
  10
768.06213
  20
1991.7344
  42
-0.12510355
  0
VERTEX
  5
41b
  8
Layer_0
  10
767.00879
  20
1991.4625
  42
-0.12511664
  0
VERTEX
  5
41c
  8
Layer_0
  10
765.95544
  20
1991.7344
  42
-0.1449201
  0
VERTEX
  5
41d
  8
Layer_0
  10
765.21973
  20
1992.4874
  42
-0.14533738
  0
VERTEX
  5
41e
  8
Layer_0
  10
765.01123
  20
1993.4988
  42
-0.13698454
  0
VERTEX
  5
41f
  8
Layer_0
  10
765.36707
  20
1994.4879
  42
-0.05687352
  0
VERTEX
  5
420
  8
Layer_0
  10
765.70532
  20
1994.8608
  42
-0.045745064
  0
VERTEX
  5
421
  8
Layer_0
  10
766.13934
  20
1995.1763
  42
-0.048983714
  0
VERTEX
  5
422
  8
Layer_0
  10
766.59802
  20
1995.3915
  42
-0.085211872
  0
VERTEX
  5
423
  8
Layer_0
  10
767.00879
  20
1995.4625
  42
-0.085211872
  0
VERTEX
  5
424
  8
Layer_0
  10
767.41956
  20
1995.3915
  42
-0.048983715
  0
VERTEX
  5
425
  8
Layer_0
  10
767.8783
  20
1995.1763
  42
-0.045791466
  0
VERTEX
  5
426
  8
Layer_0
  10
768.31226
  20
1994.8608
  42
-0.05687352
  0
SEQEND
  0
POLYLINE
  5
428
  8
Layer_0
  62
7
  70
1
  66
1
  10
0
  20
0
  30
0
  0
VERTEX
  5
428
  8
Layer_0
  10
769.24207
  20
1898.7166
  42
-0.1369818
  0
VERTEX
  5
429
  8
Layer_0
  10
769.5979
  20
1897.7274
  42
-0.14535125
  0
VERTEX
  5
42a
  8
Layer_0
  10
769.3894
  20
1896.7162
  42
-0.14493231
  0
VERTEX
  5
42b
  8
Layer_0
  10
768.65375
  20
1895.9631
  42
-0.12513127
  0
VERTEX
  5
42c
  8
Layer_0
  10
767.6004
  20
1895.6912
  42
-0.12513127
  0
VERTEX
  5
42d
  8
Layer_0
  10
766.54706
  20
1895.9631
  42
-0.14491702
  0
VERTEX
  5
42e
  8
Layer_0
  10
765.8114
  20
1896.7162
  42
-0.14535125
  0
VERTEX
  5
42f
  8
Layer_0
  10
765.60291
  20
1897.7274
  42
-0.1369818
  0
VERTEX
  5
430
  8
Layer_0
  10
765.95874
  20
1898.7166
  42
-0.056824707
  0
VERTEX
  5
431
  8
Layer_0
  10
766.297
  20
1899.0896
  42
-0.045790274
  0
VERTEX
  5
432
  8
Layer_0
  10
766.73096
  20
1899.4049
  42
-0.04902301
  0
VERTEX
  5
433
  8
Layer_0
  10
767.18964
  20
1899.6202
  42
-0.085214439
  0
VERTEX
  5
434
  8
Layer_0
  10
767.6004
  20
1899.6912
  42
-0.08521444
  0
VERTEX
  5
435
  8
Layer_0
  10
768.01117
  20
1899.6202
  42
-0.048984727
  0
VERTEX
  5
436
  8
Layer_0
  10
768.46985
  20
1899.4049
  42
-0.045801691
  0
VERTEX
  5
437
  8
Layer_0
  10
768.90381
  20
1899.0896
  42
-0.056824707
  0
SEQEND
  0
POLYLINE
  5
439
  8
Layer_0
  62
7
  70
1
  66
1
  10
0
  20
0
  30
0
  0
VERTEX
  5
439
  8
Layer_0
  10
728.29498
  20
1868.1682
  42
-0.030471821
  0
VERTEX
  5
43a
  8
Layer_0
  10
728.22998
  20
1867.1029
  42
-0.16589339
  0
VERTEX
  5
43b
  8
Layer_0
  10
727.98218
  20
1866.59
  42
-0.16813143
  0
VERTEX
  5
43c
  8
Layer_0
  10
727.47491
  20
1866.3394
  42
-0.031276828
  0
VERTEX
  5
43d
  8
Layer_0
  10
726.42261
  20
1866.2734
  42
-0.037594689
  0
VERTEX
  5
43e
  8
Layer_0
  10
725.55951
  20
1866.3385
  42
-0.087098401
  0
VERTEX
  5
43f
  8
Layer_0
  10
724.94568
  20
1866.5447
  42
-0.11621031
  0
VERTEX
  5
440
  8
Layer_0
  10
724.54785
  20
1866.9005
  42
-0.10572443
  0
VERTEX
  5
441
  8
Layer_0
  10
724.33313
  20
1867.4091
  42
-0.1214851
  0
VERTEX
  5
442
  8
Layer_0
  10
724.39203
  20
1868.5219
  42
-0.11455742
  0
VERTEX
  5
443
  8
Layer_0
  10
724.95929
  20
1869.507
  42
-0.11600147
  0
VERTEX
  5
444
  8
Layer_0
  10
725.89709
  20
1870.1337
  42
-0.12587416
  0
VERTEX
  5
445
  8
Layer_0
  10
726.98621
  20
1870.2513
  42
-0.078783671
  0
VERTEX
  5
446
  8
Layer_0
  10
727.61365
  20
1870.057
  42
-0.13897429
  0
VERTEX
  5
447
  8
Layer_0
  10
728.01355
  20
1869.696
  42
-0.10594645
  0
VERTEX
  5
448
  8
Layer_0
  10
728.2301
  20
1869.1024
  42
-0.034735688
  0
SEQEND
  0
POLYLINE
  5
44a
  8
Layer_0
  62
7
  70
1
  66
1
  10
0
  20
0
  30
0
  0
VERTEX
  5
44a
  8
Layer_0
  10
809.02844
  20
1869.439
  42
-0.10069824
  0
VERTEX
  5
44b
  8
Layer_0
  10
809.56445
  20
1868.3215
  42
-0.16900398
  0
VERTEX
  5
44c
  8
Layer_0
  10
809.47784
  20
1867.2909
  42
-0.17987564
  0
VERTEX
  5
44d
  8
Layer_0
  10
808.7829
  20
1866.5684
  42
-0.11003057
  0
VERTEX
  5
44e
  8
Layer_0
  10
807.62921
  20
1866.3094
  42
-0.10090365
  0
VERTEX
  5
44f
  8
Layer_0
  10
806.53998
  20
1866.533
  42
-0.16502472
  0
VERTEX
  5
450
  8
Layer_0
  10
805.84222
  20
1867.1676
  42
-0.14159888
  0
VERTEX
  5
451
  8
Layer_0
  10
805.60797
  20
1868.1687
  42
-0.072693143
  0
VERTEX
  5
452
  8
Layer_0
  10
805.85706
  20
1869.4454
  42
-0.18272146
  0
VERTEX
  5
453
  8
Layer_0
  10
806.37744
  20
1870.077
  42
-0.12854784
  0
VERTEX
  5
454
  8
Layer_0
  10
807.26465
  20
1870.3094
  42
-0.11272032
  0
VERTEX
  5
455
  8
Layer_0
  10
808.25159
  20
1870.0802
  42
-0.11781756
  0
SEQEND
  0
POLYLINE
  5
457
  8
Layer_0
  62
7
  70
1
  66
1
  10
0
  20
0
  30
0
  0
VERTEX
  5
457
  8
Layer_0
  10
785.67798
  20
1860.3138
  0
VERTEX
  5
458
  8
Layer_0
  10
785.67798
  20
1855.7798
  0
VERTEX
  5
459
  8
Layer_0
  10
783.40735
  20
1855.7798
  0
VERTEX
  5
45a
  8
Layer_0
  10
781.13684
  20
1855.7798
  0
VERTEX
  5
45b
  8
Layer_0
  10
781.13684
  20
1860.3138
  0
VERTEX
  5
45c
  8
Layer_0
  10
781.13684
  20
1864.8478
  0
VERTEX
  5
45d
  8
Layer_0
  10
783.40735
  20
1864.8478
  0
VERTEX
  5
45e
  8
Layer_0
  10
785.67798
  20
1864.8478
  0
SEQEND
  0
POLYLINE
  5
460
  8
Layer_0
  62
7
  70
1
  66
1
  10
0
  20
0
  30
0
  0
VERTEX
  5
460
  8
Layer_0
  10
793.24652
  20
1860.3138
  0
VERTEX
  5
461
  8
Layer_0
  10
793.24652
  20
1855.7798
  0
VERTEX
  5
462
  8
Layer_0
  10
790.97595
  20
1855.7798
  0
VERTEX
  5
463
  8
Layer_0
  10
788.70538
  20
1855.7798
  0
VERTEX
  5
464
  8
Layer_0
  10
788.70538
  20
1860.3138
  0
VERTEX
  5
465
  8
Layer_0
  10
788.70538
  20
1864.8478
  0
VERTEX
  5
466
  8
Layer_0
  10
790.97595
  20
1864.8478
  0
VERTEX
  5
467
  8
Layer_0
  10
793.24652
  20
1864.8478
  0
SEQEND
  0
POLYLINE
  5
469
  8
Layer_0
  62
7
  70
1
  66
1
  10
0
  20
0
  30
0
  0
VERTEX
  5
469
  8
Layer_0
  10
800.81506
  20
1860.3138
  0
VERTEX
  5
46a
  8
Layer_0
  10
800.81506
  20
1855.7798
  0
VERTEX
  5
46b
  8
Layer_0
  10
798.54456
  20
1855.7798
  0
VERTEX
  5
46c
  8
Layer_0
  10
796.27393
  20
1855.7798
  0
VERTEX
  5
46d
  8
Layer_0
  10
796.27393
  20
1860.3138
  0
VERTEX
  5
46e
  8
Layer_0
  10
796.27393
  20
1864.8478
  0
VERTEX
  5
46f
  8
Layer_0
  10
798.54456
  20
1864.8478
  0
VERTEX
  5
470
  8
Layer_0
  10
800.81506
  20
1864.8478
  0
SEQEND
  0
POLYLINE
  5
472
  8
Layer_0
  62
7
  70
1
  66
1
  10
0
  20
0
  30
0
  0
VERTEX
  5
472
  8
Layer_0
  10
739.76196
  20
1859.7092
  0
VERTEX
  5
473
  8
Layer_0
  10
739.76196
  20
1855.1753
  0
VERTEX
  5
474
  8
Layer_0
  10
737.49133
  20
1855.1753
  0
VERTEX
  5
475
  8
Layer_0
  10
735.22083
  20
1855.1753
  0
VERTEX
  5
476
  8
Layer_0
  10
735.22083
  20
1859.7092
  0
VERTEX
  5
477
  8
Layer_0
  10
735.22083
  20
1864.2433
  0
VERTEX
  5
478
  8
Layer_0
  10
737.49133
  20
1864.2433
  0
VERTEX
  5
479
  8
Layer_0
  10
739.76196
  20
1864.2433
  0
SEQEND
  0
POLYLINE
  5
47b
  8
Layer_0
  62
7
  70
1
  66
1
  10
0
  20
0
  30
0
  0
VERTEX
  5
47b
  8
Layer_0
  10
747.33051
  20
1859.7092
  0
VERTEX
  5
47c
  8
Layer_0
  10
747.33051
  20
1855.1753
  0
VERTEX
  5
47d
  8
Layer_0
  10
744.80762
  20
1855.1753
  0
VERTEX
  5
47e
  8
Layer_0
  10
742.28479
  20
1855.1753
  0
VERTEX
  5
47f
  8
Layer_0
  10
742.28479
  20
1859.7092
  0
VERTEX
  5
480
  8
Layer_0
  10
742.28479
  20
1864.2433
  0
VERTEX
  5
481
  8
Layer_0
  10
744.80762
  20
1864.2433
  0
VERTEX
  5
482
  8
Layer_0
  10
747.33051
  20
1864.2433
  0
SEQEND
  0
POLYLINE
  5
484
  8
Layer_0
  62
7
  70
1
  66
1
  10
0
  20
0
  30
0
  0
VERTEX
  5
484
  8
Layer_0
  10
754.89905
  20
1859.7092
  0
VERTEX
  5
485
  8
Layer_0
  10
754.89905
  20
1855.1753
  0
VERTEX
  5
486
  8
Layer_0
  10
752.37622
  20
1855.1753
  0
VERTEX
  5
487
  8
Layer_0
  10
749.85339
  20
1855.1753
  0
VERTEX
  5
488
  8
Layer_0
  10
749.85339
  20
1859.7092
  0
VERTEX
  5
489
  8
Layer_0
  10
749.85339
  20
1864.2433
  0
VERTEX
  5
48a
  8
Layer_0
  10
752.37622
  20
1864.2433
  0
VERTEX
  5
48b
  8
Layer_0
  10
754.89905
  20
1864.2433
  0
SEQEND
  0
POLYLINE
  5
48d
  8
Layer_0
  62
7
  70
1
  66
1
  10
0
  20
0
  30
0
  0
VERTEX
  5
48d
  8
Layer_0
  10
767.33936
  20
1846.9519
  42
-0.18236075
  0
VERTEX
  5
48e
  8
Layer_0
  10
766.7381
  20
1845.3396
  42
-0.2364525
  0
VERTEX
  5
48f
  8
Layer_0
  10
765.31354
  20
1844.7524
  42
-0.19449535
  0
VERTEX
  5
490
  8
Layer_0
  10
763.76447
  20
1845.537
  42
-0.14813134
  0
VERTEX
  5
491
  8
Layer_0
  10
762.96466
  20
1847.3008
  42
-0.035111884
  0
VERTEX
  5
492
  8
Layer_0
  10
762.88116
  20
1848.5962
  42
-0.1914783
  0
VERTEX
  5
493
  8
Layer_0
  10
763.13635
  20
1849.2352
  42
-0.20309586
  0
VERTEX
  5
494
  8
Layer_0
  10
763.74713
  20
1849.5022
  42
-0.038398535
  0
VERTEX
  5
495
  8
Layer_0
  10
764.98529
  20
1849.4149
  42
-0.061273427
  0
VERTEX
  5
496
  8
Layer_0
  10
766.01508
  20
1849.13
  42
-0.1043993
  0
VERTEX
  5
497
  8
Layer_0
  10
766.75085
  20
1848.6248
  42
-0.11111206
  0
VERTEX
  5
498
  8
Layer_0
  10
767.18756
  20
1847.8951
  42
-0.08016088
  0
SEQEND
  0
ENDSEC
  0
EOF
